<mxfile host="app.diagrams.net" agent="Mozilla/5.0 (X11; Linux x86_64) AppleWebKit/537.36 (KHTML, like Gecko) Chrome/140.0.0.0 Safari/537.36" version="28.2.4">
  <diagram name="Page-1" id="apVK4HFdwWbMozzORQaV">
    <mxGraphModel dx="5210" dy="3915" grid="1" gridSize="10" guides="1" tooltips="1" connect="1" arrows="1" fold="1" page="1" pageScale="1" pageWidth="1600" pageHeight="1200" math="0" shadow="0">
      <root>
        <mxCell id="0" />
        <mxCell id="1" parent="0" />
        <mxCell id="QFzevljC2YXcx73YAN4w-1" value="&lt;font style=&quot;color: rgb(95, 132, 74);&quot;&gt;&lt;b style=&quot;&quot;&gt;Openshift Cluster (Kubernetes)&lt;/b&gt;&lt;/font&gt;" style="rounded=1;whiteSpace=wrap;html=1;verticalAlign=top;fillColor=#d5e8d4;strokeColor=#82b366;strokeWidth=2;" parent="1" vertex="1">
          <mxGeometry x="40" y="-840" width="540" height="380" as="geometry" />
        </mxCell>
        <mxCell id="QFzevljC2YXcx73YAN4w-2" style="edgeStyle=orthogonalEdgeStyle;rounded=0;orthogonalLoop=1;jettySize=auto;html=1;entryX=0.5;entryY=0;entryDx=0;entryDy=0;" parent="1" source="QFzevljC2YXcx73YAN4w-3" target="QFzevljC2YXcx73YAN4w-5" edge="1">
          <mxGeometry relative="1" as="geometry" />
        </mxCell>
        <mxCell id="QFzevljC2YXcx73YAN4w-3" value="&lt;font style=&quot;color: rgb(204, 102, 0);&quot;&gt;&lt;b style=&quot;&quot;&gt;Flink Kubernetes Operator&lt;/b&gt;&lt;/font&gt;&lt;div&gt;&lt;font style=&quot;color: rgb(204, 102, 0);&quot;&gt;&lt;b style=&quot;&quot;&gt;(Control Plane)&lt;/b&gt;&lt;/font&gt;&lt;/div&gt;" style="rounded=1;whiteSpace=wrap;html=1;verticalAlign=top;fillColor=#fff2cc;strokeColor=#d6b656;strokeWidth=2;" parent="1" vertex="1">
          <mxGeometry x="90" y="-810" width="460" height="140" as="geometry" />
        </mxCell>
        <mxCell id="QFzevljC2YXcx73YAN4w-4" value="&lt;div&gt;&lt;br&gt;&lt;/div&gt;Watches FlinkDeployment CRs&lt;div&gt;Creates/Manages Flink Clusters&lt;/div&gt;&lt;div&gt;Handles Upgrades/Scaling&lt;br&gt;&lt;div&gt;&lt;br&gt;&lt;/div&gt;&lt;/div&gt;" style="text;html=1;align=left;verticalAlign=middle;whiteSpace=wrap;rounded=0;" parent="1" vertex="1">
          <mxGeometry x="110" y="-750" width="180" height="50" as="geometry" />
        </mxCell>
        <mxCell id="QFzevljC2YXcx73YAN4w-5" value="FlinkDeployment CR" style="rounded=1;whiteSpace=wrap;html=1;verticalAlign=top;" parent="1" vertex="1">
          <mxGeometry x="95" y="-620" width="450" height="110" as="geometry" />
        </mxCell>
        <mxCell id="QFzevljC2YXcx73YAN4w-6" value="JobManager&lt;div&gt;(Pod)&lt;/div&gt;" style="rounded=1;whiteSpace=wrap;html=1;" parent="1" vertex="1">
          <mxGeometry x="120" y="-590" width="110" height="60" as="geometry" />
        </mxCell>
        <mxCell id="QFzevljC2YXcx73YAN4w-7" value="TaskManagers" style="rounded=1;whiteSpace=wrap;html=1;verticalAlign=top;" parent="1" vertex="1">
          <mxGeometry x="265" y="-590" width="255" height="60" as="geometry" />
        </mxCell>
        <mxCell id="QFzevljC2YXcx73YAN4w-8" value="Pod" style="rounded=1;whiteSpace=wrap;html=1;" parent="1" vertex="1">
          <mxGeometry x="290" y="-560" width="30" height="20" as="geometry" />
        </mxCell>
        <mxCell id="QFzevljC2YXcx73YAN4w-9" value="Pod" style="rounded=1;whiteSpace=wrap;html=1;" parent="1" vertex="1">
          <mxGeometry x="290" y="-560" width="30" height="20" as="geometry" />
        </mxCell>
        <mxCell id="QFzevljC2YXcx73YAN4w-10" value="Pod" style="rounded=1;whiteSpace=wrap;html=1;" parent="1" vertex="1">
          <mxGeometry x="340" y="-560" width="30" height="20" as="geometry" />
        </mxCell>
        <mxCell id="QFzevljC2YXcx73YAN4w-11" value="Pod" style="rounded=1;whiteSpace=wrap;html=1;" parent="1" vertex="1">
          <mxGeometry x="390" y="-560" width="30" height="20" as="geometry" />
        </mxCell>
        <mxCell id="QFzevljC2YXcx73YAN4w-12" value="Pod" style="rounded=1;whiteSpace=wrap;html=1;" parent="1" vertex="1">
          <mxGeometry x="440" y="-560" width="30" height="20" as="geometry" />
        </mxCell>
        <mxCell id="QFzevljC2YXcx73YAN4w-13" value="Pod" style="rounded=1;whiteSpace=wrap;html=1;" parent="1" vertex="1">
          <mxGeometry x="480" y="-560" width="30" height="20" as="geometry" />
        </mxCell>
        <mxCell id="QFzevljC2YXcx73YAN4w-122" style="edgeStyle=orthogonalEdgeStyle;rounded=1;orthogonalLoop=1;jettySize=auto;html=1;curved=0;" parent="1" source="QFzevljC2YXcx73YAN4w-14" target="QFzevljC2YXcx73YAN4w-96" edge="1">
          <mxGeometry relative="1" as="geometry" />
        </mxCell>
        <mxCell id="QFzevljC2YXcx73YAN4w-123" value="&lt;b&gt;&lt;font style=&quot;font-size: 16px;&quot;&gt;Pulls Jobs from Image&lt;/font&gt;&lt;/b&gt;" style="edgeLabel;html=1;align=center;verticalAlign=middle;resizable=0;points=[];" parent="QFzevljC2YXcx73YAN4w-122" vertex="1" connectable="0">
          <mxGeometry x="0.2219" relative="1" as="geometry">
            <mxPoint y="-14" as="offset" />
          </mxGeometry>
        </mxCell>
        <mxCell id="QFzevljC2YXcx73YAN4w-14" value="&lt;font style=&quot;color: rgb(95, 132, 74); font-size: 15px;&quot;&gt;&lt;b style=&quot;&quot;&gt;Openshift Cluster (Kubernetes)&lt;/b&gt;&lt;/font&gt;" style="rounded=1;whiteSpace=wrap;html=1;verticalAlign=top;fillColor=#d5e8d4;strokeColor=#82b366;strokeWidth=2;perimeterSpacing=0;" parent="1" vertex="1">
          <mxGeometry x="1720" y="150" width="970" height="270" as="geometry" />
        </mxCell>
        <mxCell id="QFzevljC2YXcx73YAN4w-15" value="&lt;font style=&quot;color: rgb(204, 102, 0); font-size: 15px;&quot;&gt;&lt;b style=&quot;&quot;&gt;Flink Kubernetes Operator&amp;nbsp;&lt;/b&gt;&lt;/font&gt;&lt;b style=&quot;color: light-dark(rgb(204, 102, 0), rgb(44, 131, 219)); font-size: 15px; background-color: transparent;&quot;&gt;(Control Plane)&lt;/b&gt;" style="rounded=1;whiteSpace=wrap;html=1;verticalAlign=top;fillColor=#fff2cc;strokeColor=#FFB570;strokeWidth=2;" parent="1" vertex="1">
          <mxGeometry x="1734.5" y="190" width="935" height="205" as="geometry" />
        </mxCell>
        <mxCell id="QFzevljC2YXcx73YAN4w-16" value="&lt;font style=&quot;color: rgb(255, 128, 0);&quot;&gt;&lt;b&gt;FlinkDeployment CR&lt;/b&gt;&lt;/font&gt;" style="rounded=1;whiteSpace=wrap;html=1;verticalAlign=top;strokeColor=#FFB570;strokeWidth=2;" parent="1" vertex="1">
          <mxGeometry x="1762" y="235" width="270" height="142.5" as="geometry" />
        </mxCell>
        <mxCell id="QFzevljC2YXcx73YAN4w-17" value="JobManager&lt;div&gt;(Master)&lt;/div&gt;" style="rounded=1;whiteSpace=wrap;html=1;fillColor=#1ba1e2;strokeColor=#006EAF;fontColor=#ffffff;" parent="1" vertex="1">
          <mxGeometry x="1778" y="276.25" width="110" height="60" as="geometry" />
        </mxCell>
        <mxCell id="QFzevljC2YXcx73YAN4w-18" value="TaskManagers&lt;div&gt;(Workers)&lt;/div&gt;" style="rounded=1;whiteSpace=wrap;html=1;verticalAlign=middle;fillColor=#60a917;strokeColor=#2D7600;fontColor=#ffffff;" parent="1" vertex="1">
          <mxGeometry x="1912" y="276.25" width="100" height="60" as="geometry" />
        </mxCell>
        <mxCell id="QFzevljC2YXcx73YAN4w-31" value="&lt;font style=&quot;color: rgb(255, 128, 0);&quot;&gt;&lt;b&gt;FlinkDeployment CR&lt;/b&gt;&lt;/font&gt;" style="rounded=1;whiteSpace=wrap;html=1;verticalAlign=top;strokeColor=#FFB570;strokeWidth=2;" parent="1" vertex="1">
          <mxGeometry x="2069" y="235" width="270" height="142.5" as="geometry" />
        </mxCell>
        <mxCell id="QFzevljC2YXcx73YAN4w-32" value="JobManager&lt;div&gt;(Master)&lt;/div&gt;" style="rounded=1;whiteSpace=wrap;html=1;fillColor=#1ba1e2;strokeColor=#006EAF;fontColor=#ffffff;" parent="1" vertex="1">
          <mxGeometry x="2085" y="276.25" width="110" height="60" as="geometry" />
        </mxCell>
        <mxCell id="QFzevljC2YXcx73YAN4w-33" value="TaskManagers&lt;div&gt;(Workers)&lt;/div&gt;" style="rounded=1;whiteSpace=wrap;html=1;verticalAlign=middle;fillColor=#60a917;strokeColor=#2D7600;fontColor=#ffffff;" parent="1" vertex="1">
          <mxGeometry x="2219" y="276.25" width="100" height="60" as="geometry" />
        </mxCell>
        <mxCell id="QFzevljC2YXcx73YAN4w-34" value="&lt;font style=&quot;color: rgb(255, 128, 0);&quot;&gt;&lt;b&gt;FlinkDeployment CR&lt;/b&gt;&lt;/font&gt;" style="rounded=1;whiteSpace=wrap;html=1;verticalAlign=top;strokeColor=#FFB570;strokeWidth=2;" parent="1" vertex="1">
          <mxGeometry x="2382" y="235" width="270" height="142.5" as="geometry" />
        </mxCell>
        <mxCell id="QFzevljC2YXcx73YAN4w-35" value="JobManager&lt;div&gt;(Master)&lt;/div&gt;" style="rounded=1;whiteSpace=wrap;html=1;fillColor=#1ba1e2;strokeColor=#006EAF;fontColor=#ffffff;" parent="1" vertex="1">
          <mxGeometry x="2398" y="276.25" width="110" height="60" as="geometry" />
        </mxCell>
        <mxCell id="QFzevljC2YXcx73YAN4w-36" value="TaskManagers&lt;div&gt;(Workers)&lt;/div&gt;" style="rounded=1;whiteSpace=wrap;html=1;verticalAlign=middle;fillColor=#60a917;strokeColor=#2D7600;fontColor=#ffffff;" parent="1" vertex="1">
          <mxGeometry x="2532" y="276.25" width="100" height="60" as="geometry" />
        </mxCell>
        <mxCell id="QFzevljC2YXcx73YAN4w-38" value="&lt;h1 style=&quot;margin-top: 0px;&quot;&gt;&lt;br&gt;&lt;/h1&gt;" style="text;html=1;whiteSpace=wrap;overflow=hidden;rounded=0;" parent="1" vertex="1">
          <mxGeometry x="2059.5" y="760" width="180" height="120" as="geometry" />
        </mxCell>
        <mxCell id="uQWWyqFgI2tMkjW69CQ3-18" style="edgeStyle=orthogonalEdgeStyle;rounded=1;orthogonalLoop=1;jettySize=auto;html=1;entryX=0.489;entryY=0.996;entryDx=0;entryDy=0;entryPerimeter=0;startArrow=classic;startFill=1;endArrow=none;endFill=0;curved=0;" edge="1" parent="1" source="QFzevljC2YXcx73YAN4w-42" target="QFzevljC2YXcx73YAN4w-14">
          <mxGeometry relative="1" as="geometry">
            <mxPoint x="2195" y="430" as="targetPoint" />
            <Array as="points">
              <mxPoint x="2200" y="550" />
              <mxPoint x="2194" y="550" />
            </Array>
          </mxGeometry>
        </mxCell>
        <mxCell id="uQWWyqFgI2tMkjW69CQ3-19" value="&lt;b&gt;&lt;font style=&quot;font-size: 15px;&quot;&gt;Uses&lt;/font&gt;&lt;/b&gt;" style="edgeLabel;html=1;align=center;verticalAlign=middle;resizable=0;points=[];" vertex="1" connectable="0" parent="uQWWyqFgI2tMkjW69CQ3-18">
          <mxGeometry x="-0.6226" y="1" relative="1" as="geometry">
            <mxPoint x="29" y="-1" as="offset" />
          </mxGeometry>
        </mxCell>
        <mxCell id="QFzevljC2YXcx73YAN4w-42" value="&lt;div&gt;&lt;font style=&quot;font-size: 15px; color: rgb(153, 0, 77);&quot;&gt;&lt;b style=&quot;&quot;&gt;Persistent Storage&lt;/b&gt;&lt;/font&gt;&lt;/div&gt;" style="rounded=1;whiteSpace=wrap;html=1;verticalAlign=top;fillColor=#fad9d5;strokeColor=#ae4132;strokeWidth=2;" parent="1" vertex="1">
          <mxGeometry x="1966.25" y="720" width="467.5" height="130" as="geometry" />
        </mxCell>
        <mxCell id="QFzevljC2YXcx73YAN4w-73" value="" style="edgeStyle=orthogonalEdgeStyle;rounded=0;orthogonalLoop=1;jettySize=auto;html=1;" parent="1" source="QFzevljC2YXcx73YAN4w-43" target="QFzevljC2YXcx73YAN4w-61" edge="1">
          <mxGeometry relative="1" as="geometry" />
        </mxCell>
        <mxCell id="QFzevljC2YXcx73YAN4w-43" value="&lt;font face=&quot;Verdana&quot; style=&quot;color: rgb(255, 255, 255); font-size: 23px;&quot;&gt;&amp;nbsp;Data Sources&lt;/font&gt;" style="rounded=1;whiteSpace=wrap;html=1;verticalAlign=top;fillColor=#007FFF;strokeColor=#6c8ebf;fontStyle=1;gradientColor=#7ea6e0;gradientDirection=south;labelPosition=center;verticalLabelPosition=middle;align=center;" parent="1" vertex="1">
          <mxGeometry x="2100" y="1329" width="280" height="195" as="geometry" />
        </mxCell>
        <mxCell id="QFzevljC2YXcx73YAN4w-45" value="&lt;b&gt;Index&lt;/b&gt;" style="rounded=1;whiteSpace=wrap;html=1;verticalAlign=top;fillColor=#eeeeee;strokeColor=#36393d;" parent="1" vertex="1">
          <mxGeometry x="2780" y="90" width="390" height="630" as="geometry" />
        </mxCell>
        <mxCell id="QFzevljC2YXcx73YAN4w-49" value="&lt;div&gt;&lt;ul&gt;&lt;li&gt;&lt;font style=&quot;font-size: 17px;&quot;&gt;&lt;b style=&quot;&quot;&gt;Harbor&lt;/b&gt; &lt;b style=&quot;&quot;&gt;→&lt;/b&gt; Docker image registry&amp;nbsp;&lt;/font&gt;&lt;/li&gt;&lt;li&gt;&lt;font style=&quot;font-size: 17px;&quot;&gt;&lt;b&gt;Terraform&lt;/b&gt; &lt;b&gt;→&lt;/b&gt; Infrastructure as code for FlinkDeployments&amp;nbsp;&lt;/font&gt;&lt;/li&gt;&lt;li&gt;&lt;font style=&quot;font-size: 17px;&quot;&gt;&lt;b&gt;State&lt;/b&gt;&amp;nbsp;&amp;nbsp;&lt;b&gt;→&lt;/b&gt;&amp;nbsp;Memory for calculation&amp;nbsp;&lt;/font&gt;&lt;/li&gt;&lt;li&gt;&lt;font style=&quot;font-size: 17px;&quot;&gt;&lt;b&gt;Storage&lt;/b&gt;&amp;nbsp;&amp;nbsp;&lt;b&gt;→&amp;nbsp;&lt;/b&gt;Permanent data saving&amp;nbsp;&lt;/font&gt;&lt;/li&gt;&lt;li&gt;&lt;font style=&quot;font-size: 17px;&quot;&gt;&lt;b&gt;Boundedness&lt;/b&gt;: data source property.&amp;nbsp;Tells if all input is known before execution or if new data will show up (indefinitely&lt;/font&gt;&lt;/li&gt;&lt;li&gt;&lt;font style=&quot;font-size: 17px;&quot;&gt;&lt;b&gt;Unbounded Jobs&amp;nbsp;&lt;/b&gt;→if all its sources are unbounded, require continuous incremental processing, expected to stay online indefinitely&lt;/font&gt;&lt;/li&gt;&lt;li&gt;&lt;font style=&quot;font-size: 17px;&quot;&gt;&lt;b&gt;Bounded Jobs&amp;nbsp;→&lt;/b&gt;if all its sources are bounded&amp;nbsp;(finite datasets), fixed inputs, does not run continuously&amp;nbsp;&lt;/font&gt;&lt;/li&gt;&lt;li&gt;&lt;font style=&quot;font-size: 17px;&quot;&gt;&lt;b&gt;Windowing&lt;/b&gt;&amp;nbsp;&lt;b&gt;→&lt;/b&gt;Artificial &quot;chunks&quot; of time or count.&amp;nbsp;Tumbling, sliding, session. To process chunks of infinite data. Like taking a photo every 5 minutes of a flowing river&lt;/font&gt;&lt;/li&gt;&lt;li&gt;&lt;font style=&quot;font-size: 17px;&quot;&gt;&lt;b&gt;State&lt;/b&gt; can be located on Java’s heap or off-heap&lt;/font&gt;&lt;/li&gt;&lt;/ul&gt;&lt;/div&gt;&lt;div&gt;&lt;br&gt;&lt;/div&gt;" style="text;html=1;align=left;verticalAlign=top;whiteSpace=wrap;rounded=0;" parent="1" vertex="1">
          <mxGeometry x="2790" y="110" width="350" height="570" as="geometry" />
        </mxCell>
        <mxCell id="QFzevljC2YXcx73YAN4w-56" value="S3 Checkpoints" style="rounded=1;whiteSpace=wrap;html=1;fillColor=#1ba1e2;strokeColor=#006EAF;fontColor=#ffffff;" parent="1" vertex="1">
          <mxGeometry x="2011.75" y="755" width="110" height="60" as="geometry" />
        </mxCell>
        <mxCell id="QFzevljC2YXcx73YAN4w-58" value="S3 Model Registry" style="rounded=1;whiteSpace=wrap;html=1;fillColor=#1ba1e2;strokeColor=#006EAF;fontColor=#ffffff;" parent="1" vertex="1">
          <mxGeometry x="2145.75" y="755" width="110" height="60" as="geometry" />
        </mxCell>
        <mxCell id="QFzevljC2YXcx73YAN4w-59" value="PostgreSQL / DB" style="rounded=1;whiteSpace=wrap;html=1;fillColor=#1ba1e2;strokeColor=#006EAF;fontColor=#ffffff;" parent="1" vertex="1">
          <mxGeometry x="2275.75" y="755" width="110" height="60" as="geometry" />
        </mxCell>
        <mxCell id="QFzevljC2YXcx73YAN4w-60" value="&lt;font color=&quot;#ffffff&quot;&gt;&lt;b&gt;&amp;nbsp;Bounded Sources (Batch / Streaming):&lt;/b&gt;&lt;/font&gt;&lt;div&gt;&lt;span style=&quot;background-color: transparent; color: light-dark(rgb(255, 255, 255), rgb(238, 238, 238));&quot;&gt;- Files, Databases&lt;/span&gt;&lt;br&gt;&lt;div&gt;&lt;span style=&quot;color: light-dark(rgb(255, 255, 255), rgb(238, 238, 238)); background-color: transparent;&quot;&gt;- Finite Datasets&lt;/span&gt;&lt;/div&gt;&lt;div&gt;&lt;span style=&quot;color: light-dark(rgb(255, 255, 255), rgb(238, 238, 238)); background-color: transparent;&quot;&gt;&lt;br&gt;&lt;/span&gt;&lt;/div&gt;&lt;div&gt;&lt;span style=&quot;color: light-dark(rgb(255, 255, 255), rgb(238, 238, 238)); background-color: transparent;&quot;&gt;&lt;b&gt;Unbounded Sources (Streaming):&lt;/b&gt;&lt;/span&gt;&lt;/div&gt;&lt;div&gt;&lt;span style=&quot;color: light-dark(rgb(255, 255, 255), rgb(238, 238, 238)); background-color: transparent;&quot;&gt;- Kafka, Message Queues&lt;/span&gt;&lt;/div&gt;&lt;div&gt;&lt;span style=&quot;color: light-dark(rgb(255, 255, 255), rgb(238, 238, 238)); background-color: transparent;&quot;&gt;- Continuous Streams&lt;/span&gt;&lt;/div&gt;&lt;/div&gt;" style="text;html=1;align=left;verticalAlign=top;whiteSpace=wrap;rounded=0;" parent="1" vertex="1">
          <mxGeometry x="2125" y="1372" width="230" height="140" as="geometry" />
        </mxCell>
        <mxCell id="QFzevljC2YXcx73YAN4w-64" style="edgeStyle=orthogonalEdgeStyle;rounded=0;orthogonalLoop=1;jettySize=auto;html=1;entryX=0.5;entryY=0;entryDx=0;entryDy=0;" parent="1" source="QFzevljC2YXcx73YAN4w-61" target="QFzevljC2YXcx73YAN4w-62" edge="1">
          <mxGeometry relative="1" as="geometry" />
        </mxCell>
        <mxCell id="QFzevljC2YXcx73YAN4w-65" value="&lt;b&gt;Yes -&amp;gt;&lt;/b&gt;&amp;nbsp;STREAMING mode&lt;b&gt; required&lt;/b&gt;" style="edgeLabel;html=1;align=center;verticalAlign=middle;resizable=0;points=[];" parent="QFzevljC2YXcx73YAN4w-64" vertex="1" connectable="0">
          <mxGeometry x="-0.2177" y="-3" relative="1" as="geometry">
            <mxPoint x="-2" y="-12" as="offset" />
          </mxGeometry>
        </mxCell>
        <mxCell id="QFzevljC2YXcx73YAN4w-66" style="edgeStyle=orthogonalEdgeStyle;rounded=0;orthogonalLoop=1;jettySize=auto;html=1;entryX=0.5;entryY=0;entryDx=0;entryDy=0;exitX=1;exitY=0.5;exitDx=0;exitDy=0;" parent="1" source="QFzevljC2YXcx73YAN4w-61" edge="1">
          <mxGeometry relative="1" as="geometry">
            <Array as="points">
              <mxPoint x="2510" y="1599" />
            </Array>
            <mxPoint x="2249.9792099792107" y="1634.7692307692305" as="sourcePoint" />
            <mxPoint x="2510" y="1679.75" as="targetPoint" />
          </mxGeometry>
        </mxCell>
        <mxCell id="QFzevljC2YXcx73YAN4w-67" value="&lt;b&gt;No -&amp;gt;&amp;nbsp;&lt;/b&gt;BATCH mode &lt;b&gt;recommended&lt;/b&gt;" style="edgeLabel;html=1;align=center;verticalAlign=middle;resizable=0;points=[];" parent="QFzevljC2YXcx73YAN4w-66" vertex="1" connectable="0">
          <mxGeometry x="0.0435" y="1" relative="1" as="geometry">
            <mxPoint y="-14" as="offset" />
          </mxGeometry>
        </mxCell>
        <mxCell id="QFzevljC2YXcx73YAN4w-61" value="&lt;b&gt;&lt;font style=&quot;color: rgb(255, 255, 255);&quot;&gt;Is input&amp;nbsp;&lt;/font&gt;&lt;/b&gt;&lt;div&gt;&lt;b&gt;&lt;font style=&quot;color: rgb(255, 255, 255);&quot;&gt;bounded?&lt;/font&gt;&lt;/b&gt;&lt;/div&gt;" style="rhombus;whiteSpace=wrap;html=1;fillColor=#CCCCCC;gradientColor=#999999;strokeColor=#666666;" parent="1" vertex="1">
          <mxGeometry x="2190" y="1552.5" width="100" height="92.5" as="geometry" />
        </mxCell>
        <mxCell id="QFzevljC2YXcx73YAN4w-94" style="edgeStyle=orthogonalEdgeStyle;rounded=0;orthogonalLoop=1;jettySize=auto;html=1;" parent="1" source="QFzevljC2YXcx73YAN4w-62" target="QFzevljC2YXcx73YAN4w-90" edge="1">
          <mxGeometry relative="1" as="geometry">
            <Array as="points">
              <mxPoint x="1965" y="2040" />
              <mxPoint x="2240" y="2040" />
            </Array>
          </mxGeometry>
        </mxCell>
        <mxCell id="QFzevljC2YXcx73YAN4w-62" value="&lt;font style=&quot;color: rgb(0, 102, 0);&quot; face=&quot;Verdana&quot;&gt;&lt;span style=&quot;font-size: 23px;&quot;&gt;Streaming Mode&lt;/span&gt;&lt;/font&gt;" style="rounded=1;whiteSpace=wrap;html=1;verticalAlign=top;fillColor=#d5e8d4;strokeColor=#82b366;fontStyle=1;gradientDirection=south;labelPosition=center;verticalLabelPosition=middle;align=center;strokeWidth=3;" parent="1" vertex="1">
          <mxGeometry x="1780" y="1639.75" width="370" height="390.25" as="geometry" />
        </mxCell>
        <mxCell id="QFzevljC2YXcx73YAN4w-106" style="edgeStyle=orthogonalEdgeStyle;rounded=0;orthogonalLoop=1;jettySize=auto;html=1;entryX=0.5;entryY=0;entryDx=0;entryDy=0;" parent="1" source="QFzevljC2YXcx73YAN4w-63" target="QFzevljC2YXcx73YAN4w-90" edge="1">
          <mxGeometry relative="1" as="geometry">
            <Array as="points">
              <mxPoint x="2510" y="2040" />
              <mxPoint x="2240" y="2040" />
            </Array>
          </mxGeometry>
        </mxCell>
        <mxCell id="QFzevljC2YXcx73YAN4w-63" value="&lt;font style=&quot;color: rgb(255, 128, 0);&quot; face=&quot;Verdana&quot;&gt;&lt;span style=&quot;font-size: 23px;&quot;&gt;Batch Mode&lt;/span&gt;&lt;/font&gt;" style="rounded=1;whiteSpace=wrap;html=1;verticalAlign=top;fillColor=#ffe6cc;strokeColor=#d79b00;fontStyle=1;gradientDirection=south;labelPosition=center;verticalLabelPosition=middle;align=center;strokeWidth=3;" parent="1" vertex="1">
          <mxGeometry x="2310" y="1631.75" width="400" height="288.25" as="geometry" />
        </mxCell>
        <mxCell id="QFzevljC2YXcx73YAN4w-77" value="&lt;font style=&quot;color: rgb(255, 255, 255); font-size: 13px;&quot;&gt;&lt;b style=&quot;&quot;&gt;State Backend + Checkpoints&lt;/b&gt;&lt;/font&gt;&lt;div&gt;&lt;font color=&quot;#ffffff&quot;&gt;&lt;span style=&quot;font-size: 13px;&quot;&gt;(RocksDB, Memory, Fault Recovery)&lt;/span&gt;&lt;/font&gt;&lt;/div&gt;" style="rounded=1;whiteSpace=wrap;html=1;fillColor=#737B82;strokeColor=#23445d;" parent="1" vertex="1">
          <mxGeometry x="1830" y="1959.75" width="260" height="50" as="geometry" />
        </mxCell>
        <mxCell id="QFzevljC2YXcx73YAN4w-79" value="" style="rounded=1;whiteSpace=wrap;html=1;fillColor=#63854D;strokeColor=#64884F;align=center;" parent="1" vertex="1">
          <mxGeometry x="1810" y="1679.75" width="300" height="180" as="geometry" />
        </mxCell>
        <mxCell id="QFzevljC2YXcx73YAN4w-82" value="" style="rounded=1;whiteSpace=wrap;html=1;fillColor=#FFCC99;strokeColor=#d79b00;" parent="1" vertex="1">
          <mxGeometry x="2370" y="1681.75" width="300" height="90" as="geometry" />
        </mxCell>
        <mxCell id="QFzevljC2YXcx73YAN4w-86" value="" style="shape=image;verticalLabelPosition=bottom;labelBackgroundColor=default;verticalAlign=top;aspect=fixed;imageAspect=0;image=data:image/png,iVBORw0KGgoAAAANSUhEUgAAAg4AAACmCAYAAACyaweTAAAABHNCSVQICAgIfAhkiAAAABl0RVh0U29mdHdhcmUAZ25vbWUtc2NyZWVuc2hvdO8Dvz4AAAApdEVYdENyZWF0aW9uIFRpbWUATW9uIDIyIFNlcCAyMDI1IDAyOjI3OjQ0IFBNXna4TwAAIABJREFUeJztvXd4HMeVL/qrGeRAImeAAQRzJsUgURQVKCoHUsm2gtdBwbvvrmx5972339u7+u7u9d3rz17t2/VzuL6SbElWliVZWaQkUpJJUSIpZoJJJAESIBhAEgARCMzU+2Nmeqqqq7p7BgNgRj4/f7RmeqpPnVO/c6rPqa5uMM45B4FAIBAIBIIH+EZaAQKBQCAQCKkDShwIBAKBQCB4BiUOBAKBQCAQPIMSBwKBQCAQCJ5BiQOBQCAQCATPoMSBQCAQCASCZ1DiQCAQCAQCwTMocSAQCAQCgeAZlDgQCAQCgUDwDEocCAQCgUAgeAYlDgQCgUAgEDyDEgcCgUAgEAieQYkDgUAgEAgEz6DEgUAgEAgEgmdQ4kAgEAgEAsEzKHEgEAgEAoHgGZQ4EAgEAoFA8AxKHAgEAoFAIHgGJQ4EAoFAIBA8gxIHAoFAIBAInkGJA4FAIBAIBM+gxIFAIBAIBIJnUOJAIBAIBALBMyhxIBAIBAKB4BmUOBAIBAKBQPAMShwIBAKBQCB4BiUOBAKBQCAQPIMSBwKBQCAQCJ5BiQOBQCAQCATPoMSBQCAQCASCZ6SNtAKE1EZ//wAOHjmCE6dOISsrExWlpagqL0daWvK71uPPPY/LL74Y48fUDWu/57u7cfzkSZQVFyM/L0/6bcuOnTjc3IyV112Lo62teOmNN/HAPfcgJztLatd28iS6uruNfWRmZKCmsjJuHbfs2IlDzU1Ydd112t+PHT+O3r4+jKmu1nJ9qr0d5zo7UVlWbtP9LwVHW1sRDAZRV109KDktbW1458OP8K2VtyIrMzNh+hEI8SL5Z3dC0mLb7t14a80HyM/Lw5iaanS2nMfqdR8jKzMT377zDhQXFgIA3lrzAebPmony0tKRVlnC2Noa5OZkD3u/H61fjy937MTUiROx6nr5wnyuowMtbW0AgIGBAZzr7AQHt8nYtXcfDjU3AwACgQBa2tpQWlSErKzQRbqooGBQicO5jg60tp0w/v7Ohx/haGsrbl6xAnOmT7P9/uyrr6H97Fl8a+WtaBg3Lm49UhVd3d148vkXAAA/+PZ9Vix4AeccT7/yCu697TYAQFZmJsbW1sDnowViQnKAEgdC3Hjnw48wb+ZMrFh2mXXsfE8Pfv3U01i34TOsvO5acM6xbfduzJgyeUR11eHKJUuGvc/+/gFs370HSxctwicbN6K3ry+uKvKKJZdYn9vPnsV/PP4Erlq6FJPqxydYYzOKCgrw5c6dtsThaGsrunt6kJ4Cq05DhU1bt6GspAT5eXnYtG27FCNuOHb8OI4cPWZ9LyooGBFfJRBM+MuNbMKgcKG/H719fagok1cRcrOz8e07bkdebi6CwSD+22P/DgB44vkXMKl+PBbPn4/fvfAibl6xAqs/Xod5M2fiyiVLcPL0abz94UdobWuDz+dDXXU1rr/yCmspnwN496OPcOToUZxuP4OSoiJMmlCPZYsXAwDWffYZDhw6jKkTG7B+02b09fWhfuxYXH3ZUrz6zrtoPdGGooJCXLpgAaZPngQAePTn/4ZV112HGVMm46mXXkZVRQW6e7qx7+BXCISXmG+6ejlyc3KAcJX/0fo/4+y5DpSWFOPi+fPxyltv48cPPoC83Fy88tbbOHn6NB689x7juG3dtQsZ6elYumghtuzYgc3bt+OSiy4aEo42bd+OHXv2oLXtBPLz8lBbVYXrrrwCGenpAIDN27dj667daDt5EqNHjcLYmhosu+Ri5GbbV2FOnD6Nx599DldfthTzZs4EADSMH4eNW77E6TNnpIp6y46daBg/Djsb93rWp+lYC554/nl856678NaaNTh99ixKCguxYM5szJ0xAwDQ0dmJ1R9/gmPHj+N8dzcqysqwYPZsTJs0EQj7yIeffoqtu3bjwoULqKuuRm1VFbbt3o3/4zt/BQCufva7F19CRVkpWtva0NzSiv/6w4dx+OhRfLrxc+ucmqpKLFmwANUVFdpx55xj844duOSi+cjMyMT769Zh+dJLpRWD8z09eGvNBzjc3AwfY6ipqsTVl12G02fO4A9/fBUI++eKZZehrKQET7/8Cv7uoQfx7KuvobiwECuvu9aSdbajA//+2/9tre7s2X8A6zZswOkzZ5CTk40pExpw1dJLkeb3x+1LBIIIWvsixIWM9HTUVVfjvbVrsWHzZpxqP2P9VlxYiMyMDPh8Pjz8/e8BAL5z1534xi23WJPX7n37sHzpZZgzfTp6+/rwxPMvoKSoEA/cczfuuW0VAoEAnnnlj5bM9V9swq69+3Dz1Svwdz94CEsXLcLa9Rus5XofYzh9ph09Pb144O5v4aqll2LP/v145a23cdmiRXjo3nuRm52NNZ98orWH+Ri2796NqvIK/ODb9+G266/HoaYmfLFtGxCu6l9+8000jBuPHz3wAK5ZtgzrNmwIncsYAGDyhAnWRc6EjV9+iRlTpoAxhllTp2LTtu2DZEKPo62teHvNB1g0dy5+/NCDuO2G67H/0CH8+fMvgPDF5o3Va7Bwzhz86IH7ccdNN+JcZyfe/fAjm6zO8+fx9EsvY/G8eVbSAAA52dkYW1trjREA9A8MYNfevZg3cyY4j95icdPH5wuN4edbv8RNK67Gw9/7LkpLivH2Bx9act5YvQbdPT24e9VK/O33voeaykq8+s47CAaDAICtO3di/RebcOWSJfjRA/dj6sQGfLZls8WPFz/z+31o3H8AFaVl+OattwAAXn/3PZQWF+PBe+/B/Xd/C6XFxXjh9T9pbiCF0HjgAHp6ejBr6lRMnzwJA4EB7GhslNo8/9rr6OjsxHe/cRceuOduBAJBvPLW22gYNw43r7gafr8fjz7yIyyeN086b8aUyWg8cABBYWy37d6N/NxcTBg3Dk3HjuHFN97ARbNn4eH7v4+brr4a+w8dwvtr17n6DIHgFZQ4EOLGPbetwpSGBqz5+BP84skn8dNf/hJ/en81jra2up67aN5czJk+DUUFBdi2azcYY7juyitROHo0KsvKcMPyq9B26hSaW0KyLpo9C3915x2oLC9DRno6pjRMQFZmJk6eOm3JDASCuHzJJcjLzcWC2bORk52Nuupq1I8dg6KCAsyePg2d588bdSopKsL8WTORk52N+rFjUFlejnMdnQCAnXv3IjMzE8uXXoqc7CyMqanBxPH10vnTJk3EgjmzjfKbW1pwqr0dc2ZMBwDMnzUTZ8+dw1dHmjyMdmyoLCvD/XffjSkNDchIT0dlWRmqKypw8nRovDq7ugAAOTnZyMrMRGlREb556y3RPRehay0u9PfjqRdfwoRx47Ds4sW2fuZMn4Ztu3ZbF/dde/eG7snX1MSkTwQLZs9BdUUF8nJzMXfGDAwEAtYm0BuvXo5brr0GRQUFyMnOwvRJkzAQCOD02bMAgJ2NezGurg6zp01FZkYG5kyfjsLRBZZsL34GAPl5ebj2issxYexYa6zS09KQn5eH/Lw8XHHJJfjRA/dHhsiGL7ZtQ8P4ccjOykJ6WhqmTGjA5u3RBPHE6dNobmnB1ZddhuLCwpDMJZdg/qxZrrzOmjoVgUAA+7/6yjq2a+8+zJgyGQzAhs2bMal+PObNnInc7GzUjxmDJQsuwpc7dxoTHQIhVtCtCkLcSE9Lw43Ll+Oayy/HkaNHcbj5KBoPHMCXO3di+dKluHj+POO5o/NHWZ/bz57FwMAAnnjueakNYwxnzp1FbVUl/D4fDjc3Y+2GDTjX0QHOgf7+fgSCAat9Tna2NJmnpaUhLzdH0DcdgUAAJuQKbUPn+zEwMAAA6OjoRGHBaGm5ua66Gus3bXIdpwg+37oVVeXlKCsuBgCMys9HXU0NNm3blvAnO/x+PzrPd+GL1Vtx+sxZBAIBnD7TjtqqKgBAdWUlJtWPx7OvvoZxtbWoHzMG0ydPQl5ubkgADy25P/fa6xgIBHDTiqu1/UyfNAlvf/Ahdu3dh+mTJ4X2PIQTo1j0iSA/L9f6HNkj0d/fDwBI8/uxadt2tLS14Xx3t8VNYCDEaUdnJ+rHjZXk1VZV4cDhw4BHPwOAUcqTLhdfNB9fbN2Gg0eOoGHcOEydNNHiUMWZc+dw6EgT7rrlFuvYnBnT8fsXX8Kp9naUFBXhdHh1rqwkKqOyrAyVZWVamSKys7IwfswY7Nq7D5Pq63Gq/QxOnDqFu26+KdT/2XM439ODxwUbL/T3o39gAOe7u5GXk+MgnUDwBkocCINGeloaJowdiwljx+LKJZfg1Xfexdr167HYIXFIS5Pvt+bm5Ggr2tKiIgDA86//CT29vVh28WL4fD4UFxbiN08/I7WNLEm7HTPBx8wLcBwAU2rMyPK6F/T29WH3vv0IBAJ49Of/psjx4XxPj3ZvQbz49PMvsGHzZlx7xeWYOnEiRuXnY83Hn4QtCd3a+cYtt6Dz/Hl8tnkLNm3fhtWffIIbrroSc6aHLvynz5xBTnYWznV0YPO27Zg/a6bcCQ8lBDOmTMaXO3eiqqIczS2t2kc43fSJwMRXb18ffv3U06gfOxYXzZ6FNL8fjPnwxPPRC6QXjtz8DOGEU8QVl1yCpQsXYtO27di9fx/WbtiAeTNn4sblV9nkfP7lVnAAz732mv23rVtx3RVXaO2LBTOnTsEb769GkPPw7bVyFBVEV1aqK8px0Wz7yldkbwuBMFhQ4kCICwcPH8Gm7dtw+w03SFU4Ywy11VXY2diIoEN1L6KooAA9vb0YV1urfeSs78IF7D90CHfedJO1fNx1/jx6enoSaJEzRufnY/+hQ9KxtpOnPJ+/adt2pPn9+L//5q+lC1MgEMDPfv0bbN6+HUsXLkyYvjsbGzF90iRMnzTJOhbaxFggtcvPzcXypZdi+dJL8e7atfjwz+utxKFg1Ch85xvfwPovNuHdtWtRU1WJCs0jtfNnzsJv//AHbN6+HePqajEqPz9ufUw41NSMjq4uXHP5MmRmZAAAduyR9w2Mys/DeeXdFieEW1lufuaEtLQ0LJo3F4vmzcXeg1/huddew8Xz50mbQoPBILbu2oVlFy+2Nu1GsH7TJqzb8BmuXroUxUWhc9rPnkVVeTkA4GR7O5qPHcPsafZHW1VMaWjAG++vxv6vvsLOvXuxcM4c67fCgtEYGAigfsyYmOwjEGIB7XEgxIW83Bw0HjiIN1avQd+FC0D4QrB5+3Z8vOEzTKyvh9/vR052Nvw+Hzo6u4yyZk+fBsYY/vxFaNk/yDm27NiB/3ziSfQPDCA9LQ1+nw8tbceB8Ma+99auQ1ZWltX3UGPqxIno6Oy0kocTp09j2+7dUptde/fh8y+3as/fvH07pk+eZKtm/X5/aJPk1m0JvQedmZmJ4ydPIhgM4kJ/Pz7683r0D/TjwoXQsv+XO3fh/3vydzh+8iQQfmdEb28fRgsX/bS0NDAAl1w0H2NravDC63/ChfBtAxEVZaUoLSnGpm3bMXuq/sLnpo8bsrJCj6xG9s8cbW21xr/vQh8QvqDuP3QIHeH9GzsaG613YsCDn+lwsr0dP/3lL9F44KDFT+f5Lvj9ftvLu7bv2YPevj5cpNmrMHfGDAwMhDZJlhUXo7aqCm+uXoMTp09jYGAAH376Z3z6+Rfw+XzWE0mmF3yl+f2YOnEiNmzegnMdHZg5dYr12+J58/DVkSNoOtYSHpsL+NP7q/Gn99/3NM4EghfQigMhLpSXluKe21bhw0//jP/xn78AwvvpqitDj6pdFN4kmJGejrkzZ+Dlt97Cx599pr1XnpmRgW/feQfeWrMGm7ZtQ/9AP3zMh1uvvda6z7186VK8v24ddu3dh4FAADcuvwoZGenYuOXLYXnMrKSoEDcuX4631nyAsx0dKCspwcXz5+NP779vLa83HjiAk6dP2zZIHjh8GGfOnTNufps3ayY+27IFB5QVjcHgiksuxnOvvY7Hfvu/EQwGsWjuHFy5ZAlee/c9vPzmW7j2yiuws7ER/+uZP6Bw9Gh0dHWiaHQBbrvheq2822+8Ab9+6mn88e13rPvpImZPm4a16zdg6sSGuPRZNG+uoz3jamsxpaEBz7zyRxQVFCArMxOrrr8Oz776Gl59513csPwqzJs5EydOncKvfv8Uent7MbG+HrOnTbM2EnrxMxWlRUWYOnEi/vj228jIyAALP2656rprbUv/m7ZtR8O4cdbjuyKyMjMxqb4em7fvwJzp03HXLTfjzdWr8avfPwXOOUqKinD7jTeEbK2rQ0VZKX72q1/jolmzMLlhgk3ezKlT8NRLL2NSfT2ys6Jv5qyrrsbtN96A1959F36fD2c7OlBcWIhvrVrpOL4EQixgXHxmikCIA30XLuDEqVMoLS42vsyote0EsrIyUTh6tKOsc52dCAQC0j3bCHr7+nD2XIft3REjhU8//xwfrd+Af3z4b0daFS0GBgbQduoUKkpL4TckV5E2uTk5KBg1SttmOPVxQ/vZs2CMufpRBM+88kcEg0Hce/tt0nEnP9OBc46T7e0IBoIoLy2Jae+ME7p7etDV3W3bbMkBHGpqQnVFhXVrJlYcP3kSBaNG0WuqCQkHJQ4Eggd0dHXhN08/g2WLF2P+7Fk41NSEdz74EAWjR+NbK28dafUIAPbs34+3P/wI37jlZpQVF6PxwEG8/v57WLZ48ZC9ZItA+EvE1yJxSHkDkhSJqam8IRU43L5nD977aC26w5syqyoqcNfNN9nudScThovDZOAvyDk++ORTbNyyxXrsds6M6bhh+XL4ErRCMNygGEx9pKbnOSMlEwd3hVPOpCSBs4snMgCIw6HC8HBI/A0VKAZTH8PH4UghZRIHu5Lc4Tfy+Zih8Wbm+Zs3EIdDjCHmkPgbYlAMpj6GgcNkQNInDiZH50qDpDYiBcGUD8z+i+abHsThyCBRHBJ/IwOKwdRHIjlMJiR14sCVb6KTc/0vmvMIXqE6L1PdXHJ+UwjIIA6HF4nmkPgbXlAMpj6GgsNkQ9ImDuICms7RuZoxhx+ZUo8RvCPiuOKjZtYx0c01jq9zeuJw+JFIDom/4QfFYOoj0RwmI5IycbA5u+Lo1mce+qxrD3J8zxCX01QnZkIAMI3jm5yeOBxeJJpD4m94QTGY+hgKDpMVSZc4mJw94uici07Pw9+VQBD+L6mMS0JYrsqiDhtx7JCzw3JzBgbG5N91Tk8cDi8SzWEUxN9wgGIw9TEUHCYzkipxcHd2jmDke9jxg0LGDOE3WZ69h79sMO23kDMLWTFj8EmOHv7OmNHpuSWPOBxaDA2HXGCS+BtKUAymPoaOQ7v05ELSJA6mpCEY/iXIQ24f5KFjEed/oXU/3j3VhM3nTqCl7zwGeFAVqHTEQ8yazLYdDoch52oqr20WkqtpaJIryvcsV5CfYDv9jKE6Kw/zCstxTcVY3Fk72XJyHxh8EccPL7v5BKcPQdYtVg6P9Z1HgAfd5yY3t+XiB2W8HHl04E97ngt/cesjyvWiT/RAGvOhKg4OuVAtcQCM+BuEPsPPX6JicEjnUdd5S5zvvMgV9XGR63TASL/X+Vk+MJh5NBWSh6RIHJyShmhGzBHkUYd/vnU/fnJwE5p6O1UhgtShuOBHjqdg4Ngc3F1uXXY+/mHKItxVN9lyeF/Y+SMZtC/i3ixSqTJLnmcOBz2xOyRWCZ7YncZLr4/udwd9PE2A3i+odTn5+IfJzhxGq56IvFDlyok/w+8O+owAfwmJwaGwyzhekeNDVciJcoe6kHO30+s8mirJw4gnDmrSIN57C/Koowci/8Dxj/s34tdNOwUJQ1GReHQkrdxYJz7DwLhNfPHYKYoz6aM57cHxs/DPM5bAH86m/YxFHd9acot2ycMiuInDfRvx6+adSv9O+gl2DdWKkdh+SCeaoVsxcpJr4jBS+agTFJcqVOIvWfmLOwbd5lEneF6hUQ64zlsGAfHOo1q5I7eC5cShT7x1keTJg//RRx99dKSVMIFr/oWcfUcCHGkQF3pPE8LIXugTo08Um84cR1f/BVxZPibk6CwyWWkmLY0KNg6bdwyNXbbfHeQ7/Ow4btrzRrDC8RgHXjjUSQHxlzL8xRSDTTvc7YuJRy92RX4f5gu9Qc2h81f99cIbh8mfOPhGWoEIOGTf4JpK58XjB/Crpp3iWg6i0QLhAMI7VITPKixmhP9COWaSG/kufhabSdHLhLYRuW76qHLd9NHoptPHk52iPkwax18d3IYXmxstPiLVqLipCkFhgnLkUNO/OG5MGDcnu5hil2if5jStf6hypc8qjw78QaePYqfWPxz8lcFdriXD3c5fHdzqwGG0TBWPEX+pwl8YnmJwh2Ge0PRvm1+gOU/Dn5f5RTvfmcaZKfqY5EJpG4Od0ngb7HTyD61cSHZ6mke5OYdJBiRJ4sCt/4/cUw0Coftw4XtxAXD85OAmCDOb/E+qjcKZJxc+y11F7omEZXFFriAfkGVwoT0X+nTUh0fP4171EeRCo48qV7KT27r3bKdoL1fkg+Mnuz9DwLpXGuEHYc7E3drcmUOdXVL2qO9fNV8aN9FGm1wTjwa5oo7WeRr+pPHS6CPyofMP0ZdM/qq1E3Z9VDu53s6f7Nmo5TBocRi9B078pQ5/scWgyS5xnOOwy3V+UfnTzXeacYZOH7tY53ndJNfkrya5cLfT5XrhNI+Kj8Qqg5c0GNHEQetPEaePDCpCWdlLrQfQ1NslC9BleFJ2acgcbe2dMkdVlltG6iBfK9dJH8M5YjtjBaV+9mineJKmEmjq6cTLTXtDmXJ4IrL+J8V/6H8BgcOXjx8Ib8JiGv2ULwz6SsTWVBHkaJM6Vl7kMvsxt0rHJN+tojPpoq28XMxgYhu5QVN3B14KcxjhR614rEo1zCHxl5z8xRqDtnnUcb5Tq2YPdkljYxoQ9bPTfKfxD7d5XTdujvNz5KPX64Wqj/00t5VpdR4NihxGGmnyl2RBEqw4cCER5OEjkUQtsgOY4/1TTe4VzlBkyI6Zo12Msz4muSZ9vGTIGjtVuQleUXnv+CGLF84jK0ThDa1WxRO++AgcvneqSam0DDza7PK4gqLKldzMYwUs6aNWwAYeuTJuJn20dir+pOrjuSJXfN7FzvcVDoM8ypvFpRKDxF/y8uc1Bm3zqNv8IuokNXOZR3XjbLTLTR913jLpI46xSa6oz8iuqOjm0ejPXBCtC4iRRRIkDjJ4eLAjLyWJZNRbOk4aMjwl83e7RxXrPVXp3iezp66281R9TJmsKFcjyCQXqj6w6yPK0Nrppo8qV77Hu+XsiegyW5gthCtWKG+hkzg8d9Kh8vNol1TpKHa5VQCe7qkqB1wrL4dxNso16WPv3saj0U5VR2c7t5xpM3AYVPjjxF9K8ecSg7p5VDu/IMb5RbQr1vnFLsZGgChXFC/pwwz62Lsbvj04zC43DOd5NLmRNtIKAEKSFql4Ivd7EM2Uj/V2KZk9D7HAh2DXr5rVusplcnZrkytmsk4dq9l2+DN3s5Ob9dGoICnKnZ4SUbPtkNxj3Z3Wo7I+xhEEA4KAz3p0nCMY5AgyHYeCPC4Y5GQXcxg3p3E22WWrapRxM+nDuf6zKlvLk5NcONtpqmrEDp3sZHb/ONbTZXHIGUeQh2a00Bwa3WdE/Cm6JSF/scegYX7RKhBpI9plmu+E9m7zi8EuT/Modxhn6XOC5lHNV5stnq8X0QPiPMrDHLLIcEVyDOtDcmHEVhy47b9c/h5+SUnEhwLgDhm6U0UhZrBDUeGombGoj0kulLaGzFtn5zDs+nWzM8AjS6KR5ezQW+bC75qzuIy+aEbgEA7jNmwVjtsueYcKR5RvqnBsusdgp2OFo9NHU+Fod/XLdgbEWxM8WuWI8cg5RyAcg0HiL+n4izsGnfp34kM3v4jHYplfDHbp5brp4+AfWn1U3ZRmrvrYT4uOn/cVlQiHXLgtCKdroqbbkUJyrDgoiN7fiWbKtlHTZY66e1+mVNGWkSrtTbJs4hwqHW1BpGTWurY2uTE+J26rBHXVjKYSiMFOMVPm0XfVARDeOGjikEO2y0aPSSfFLsad7dMOFuxjL/6mq6C0PLlVUIOw081fVZ838ujgV9a+Bh4qxMAQRBA++Ig/qUkq8BdHDDrOL9zW3ZDMLzq7tHJN/qHOo5F5y8U/JBn67h350+nttGKryuXO86g+M0kuJMUeB8s9rP0N0ePSEaka8FABRLJVYwVgP01bAegqC+uzmpk6rAhApw9kfbQZL2S52oqEGfQR2tvGz2Sne0Ugb96JVDqh5VFIlY/AoecKQJepx1kBaCsSO60Sf54rEuZBH8XOmFeMNP6q2hkR4NnO0Hkih9Y/Hn26ghN/KcMfvMYgRPsV+zyvGCnHBrNipNXH64qROkCJWDFy8I/BrBgZ7FQ55OH/V1cfkg1Jt+IQHUDxBTSIZm+OI6lm1IpgZsjgjff4NIqJgriT3EhzhwrEOqxm+y76WDt2mVkBW2Uk3uNze/OlxjDla5AjlCXz0H1Uv/VX+cTET+HQVHVJdiFcMXi1Szg35nvi5q+yPnAZL7WjQf6NFEc/d/APq3uXe7VhRDgMcsDHVPaIv1ThL6YY9DTfGfizTQvc/oPjyqh+z5R5HhVsjmtvmNv8HOv1QtXHAIl/ZztFDrkVg8mPEV5x4PZPxid6NBljoisKXcaolavoY8nQmOi04iHJNejjlNFrKxwPdlptnCocg52CPta0oaw4y9/VMNBk8LrM37NdwniI42a0K8aKwjrHYWXGJheyL8W0AsUMcpUTXStEE4+yPxk5lJQVvxF/drkmfexmDBt/xhjU9O82v9jmLc04O9o11HsaFFoluUzWzSbXwZ/c/NXTipi6J8TuH7HH4MgjqVYc1ORPzJqHbE/DIO4x2vUxyTXpo5Grzdy5ppmSyQ7KTq/3HKO/qRt3LLUVCdF/woxmU8B0L1BVR6enYJ/9oPajLTqZ5pgk18Cf2z1xJ5j8VdedKtdWmZs4VfxJsVPLociZ9Bg88ae/xywUAAAgAElEQVRXLcn4c41BjX3ae/0e5lHjfKcaM4g9DZI+ujFS5Yr66HxBIyOW64V2/BR9bHFgmkedOdTlK8mCkd/joONLXGqLvM3O6z3GWCsAx3v99gLFXpE4ZMjQ6QODPopyMd1zVO1008dQEUjmayoCQQaHsAs4HGRcDQDrWiMsgA/mHmNCKgDlgGtFMsgVI7j4q60iMdmp6hjLipHeXy0OeTTugpC5A48mELJdmn5t/RN/WrmR74niL6YYZEI/scwvsPVvG2dp3Ex2eZlf7MMmc63qY+9Of73Q6DPoFSNmlyt9Vu2U/UniMPz/2hwryZBUKw4RaPJOD/codRWFQ9KY0D0NavZu6liXySbfexqi5xnsFGSJXMmWK5MYdGNOz/nL+mrs1FU4Nrne7olLJ2oKpmC4krBPYHbeJTnEX1LwF3sMCmfq9kzZBGp6MvHoZJfbPModxln6nKB5VPPVZovn64WuL5M+9p9dmiUNRn7FIRaM1D0q8YBU4ZjkQmlryLxFIV5XVBwrAZNcxGinqI9h3OPBsFU4sa6gGHQ1VTg23UW5bhW5h5UitwqH6eTGaGc8lBJ/qc2fJdbAh25+EY/FMr94scvNP5hGrijfqI+qm2q/mz66cWPyP0kfu5s5+sfXAEm54hACV6oetaIQPzBDpWNKH+k9DTHZaciDufQb0/wGmUNLF5NOSv/0nH+C9uAY5EocconD6EgSf3a5ycgfPMagxq6hml90dmnlmvxDnUdT7z0Njv7ExKP2GExmpNaKgy7DG+F7VLbz3PY0aDNeyHK1FQkz6GOqSJzs9FgR6PQZDGJa2RH0dKoAtBWJnVaJP88VCfOgjygrnhUjjb+axsyznaI+Jjvj4JT4S23+1D6kj+r8Am/9u60YAYpcl3lLlC+Ns6ij3QzJPxxXjBz8YzArRkY7mV7uYOhLAiTxikMUYubsXFEYMnh6T4NynsYwbTeR3+zPdbuMpqFbes5f1tfhxITfE7c/5RMLh8RfavMni6b3NHjTxwCJ/xiuFxG5QhzEymGyIMVWHAZZUegyRq1c4UAsexps+rhUFMwlo9dWOB7stNo4VTgGOz3pM4h0WVvhONkl9A84VxS2CsdDRWGd47AyY5ML2ZdiWoFiBrnKiW6Vk6qPzk7j+Nk69Q7iL7X5E+UZ5y3NODvaNdR7GhRaJblM1s0m18Gf3PzV04qYuidE4x+qXGvMBsnhCCIlVhwAQ4Zn+12X5dN7GmwybPo4VIqifJ0+scKkk60S0/VvFGYeI10FpfJo4i/Fn/OX9XGp6LyC+Et9/tT5xWa3YZyNdtF7GvTzqF1swubREUbqrDhYyWKMFYDjvX57gWKvSGKpAJQMXCfXc0XiZKebPoaKQDJfUxGIMnTybXbGgSGvAJQDrhXJIFeMTJWDsSIx2anqGMuKkUd/tfoeBIfEX+rzZ+kHZYDinV/sYpznF5M+zKCPvTv9ipFGn0GvGDG7XOmzamesK1ipiRRacdBVFA5J4zC8p2FJcTVWVU0wyAV+uGMd/nnqxcjzp+OLM8fx7NFG6/fvjZ2BaaOKcbKvBz/ZuxHgwKj0DDw8YS4KM7Lw072fo7X3vFaupOhQvachURWOTbwu89d8Gabn/P/r5EUoTM/Uill36ig6B/pxQ8U4AMB/a/wMZy70AgDqcvLxwwnzAAAvHN2Lz063YkJ+AX5YPxdTRxVj+7mT+Lf9m3Gku0PQV2e0QwVs0Rbnc/7MUFna9PGIJOTPFoOKGCkGzx7Hs02NVlMpBhs3wudjeGjcTNxYWY/zA/14tWU/nmna8/XhD5qKVxIvrgi4zC9OdrnNo1zWwxaDQlNbDO75DGcGegGuicH2Vuu8xcWVuKNmEg6dP4f/OLAlgdcL4YDqBtrzXPacpShSJ3FQs7PwHwQJ/VdDXCTrMwVgRBxXM/+IAMPmKUsuQ2VWLi4uqgIAjM0ZhbLMHOzuPI2ugX6r+YPjZqIkIxv7us7g2aN7Lfk/mbYEpZnZ2N91Bj/ZuxG310zEv89ahqL0LGT50/D4oZ1o7e2OGmCzU1fhxGJn5L+GiU+wUx4HbufCK5ioh2iXQ/+WHkriw5T2NvucEqSo3HkF5ajIzEEa82FuQRk6Bi6gsbMdAHCkpxNZPj8enjAXALCj4xSeOLILAHBH9STr+K6O02jp7cKGZd9AYXoW9nedwWWltVhVPREz1jwVSjaM+qh2iv6qqYq82ilWODCNe4xIQv5ijsHmvZY+agz+Zs5V+N7YGWjq7sSo9AysrG5AUUY2/uPAl18P/iKCRR6N86jL/MIU+0x2eZhf4otBjjtq5Bj8rL0VYECWPw1Pzb8WE/IKsP50i8yf2/UiAuM8qsZB5HwXO6GbR1MXKZQ46CodU/o4PO9peOnYPrx0bB8A4PdzV+Deuqn40Y51eK/tiHSBberuxMS8QkzLL8KujtO4sqwOpZnZaOvrtrq4rboBvzy4DQ15BbhvzLTwy39dnoN329Pg1U6TfLGCkMTE6fSiLVLFYupfK8Cuk/ibZKYTp6EPN3/2OgCgLjsfR1Z8D9vOncTSj1+0mv+fE+cDYQ5vqqzHE4d3AgCuqxiHtr5ulGfmgINjSVE1vuo6h5/tX4OXju7HL+dciYfGz8JlJdV4reWAgz5D+Zw/s/NuHD8PSEL+rBjkwO/nr8C9tWIMRtu5xaAPDBNyC/DUkd24b9O7GJ2egdM3/jVWVTdEK9ZU5886V50H4pxfdHZp5TrPL+4xeBGgi8FyIQZ5tN9/mXoJsvx+tPV1K/p6vF5IY6WZR2N5T4PjPKrpMkWQOnscwOR/TBh4prbDMN+jYg5ygcaudnQOXMA3a6cAAG6takBbXzeO9nRarR7a+gH++96NYOEjDD7BTnU1RKnoTPcGJTVVOzVVoWSvk52D8Xgmy2EGcUN2TxyKXRoFpG5CXz4704orS+uQnZaO0qwcXFpSjS/OHLfaPHu0EQvXPouXju4HGDAhrwAA0NzT5W5npFPPdkIYGw/8uflrTEhS/ox+GTomxSBjuLVqghSDQXBc/slLuG/TuwADLi2pgZ8xbD936mvIn/DZqX9LD9Uutz1cDvOWzj5oxk34GjkqxWBmthyD4b4uKanC306Yg4e+/MBsp4kP3Z4X47wutHXau+G2BydFkTqJA+fhrE34qzuRLJJDOK78izS0PgrZp9jGdp7Qr0m+1LeoKyQ5PjCsPXkU14fv011TPgZvth6UEvL2vh5Nv4J8sS9o9IGqj0Zv2/ipsrzINVWTnkjU9AV3u0ztJf00/Im8GO3idnvEMQ/j/bbDyEtLx80V43Fr5QT4wPCnloN2vsDx2znLsbxsDF4+ug+b24/b/dXNTpO/6uxUfM1+zKX914U/1S/FvtUY5BzXlI/Fm61f2eWDg6/8Ed64+Bbs7DiF/2fnp18j/jRzierrNv10dqnH3OYXh3lUnF/USVSxU4rBqgYlBjkymA+/nXs1nmtuxJu22NTpo/M7Uf8Yrxee5mdFfooidRIHY4XjkjGKzUwZo5raSufFumtbPC/6w2utBzBrdCluqqxHfW4BXjl2QJOxe61UoNipO89gp6cKx0uFEQ88VG4x7dpW+HDN/JldkKM+0R/2d53Fvq4zuLGyHjdUjMeG9lac6e+TOkpjfjy34AZ8b9wM/KFpD+7/crVdH5u/auyUPjtUcsbx0wyYMlzxkZjk/Enn2ecCewzuF86Jyr5r41t4reUApo8qwePzV3yN+FPO9WyXxxXMuOcXnTl2/vafd4pBhn+ZtgSj0zPww21r9T5k00ftwzCPinxI86hBrjVmqr/av6YqUidxUCsW67iS4UHOUsGVf2JmrWa1RrkaQTa5qr6yHi8f3Ye+YAA/m7EUJ/t68F7bIbnaUQXFZKdOHy4LMlVmkr7Qy4Uy7nFnyg6Zti6DN42HWsFBsUsdN22F61EfAW8d/wpXltXhyrI6vCGuGIU7fWL+1bi5qh4/3r4Od3/+Ns709Sr66ng02ck153ngT7VTHXebf8SCJOfPdp5bDB62zinKyMRf18/CPXVT8MLRRty6/nXs7DiFa8rHfo34g/M4G+3yMr8oNkAV4WHeUscD3CbLHoNRWTdWjkdVVh5O3fgD8FWPoDwzBxcXV+H49Q8pA+CiDxQ7VX/VXodEOyHI5XY7B8NfkiB1NkdGsjQe/hwZd9vubUD6YDtPae95V7giSNyd65h5htAxcAFrTzZjRflYPN20G0HpPIYlJdUoychGZXYuAGBJSTUm5BVgzYkjoR3iCd2l7vIUhc5OKOMeFxLxFIyojDiGXu2KHFfk2lS1//DKsf344YR54ACead6DxeHd/ABw/7hZuKduKr48ewI1Ofl4bPYyAMD7x4/gneOH5IrOGgsnO1X+PPor18l12DUfE5KYPyd9wrDFoPBjXzCIf52+FEHOMTo9E33BACbnF2HTmTZF31TmT6iiXec7B/6Yzj5xfhHnZ6Fjaf4w2aXqIx82xyDD32z9EPlpGZb8J+atQEvvefx4+1p1ANyvFzDZGWmujp+it9tTMKo/pxhSJ3FQsztd1q5tLwQAl79qhasBo5WrKCM6gUk3DrzechArysfi1WMH5OwWHD+ZdgkuLamxmv9q7lUAgCnvPoHGrjMGe9XVEGGiUQNYtNPKtuOxcxCZA1fGWXehEM2xkS70rx0OlUddG5PZglyDTn8+3YKW3i4c6+nCse5OoNAqM7CoqBIAMKegDHMKyqzTuvr7Q4mDk51D9Zy/6W8H6C4cXpAK/MGBQwCvtxyIxqDQ5nz/Bdz3xTv4xZwr8Z+zrwAANHV34O+3rzPrk2r8AXZ5Jh6d7HKbR7mDXTY9dD+a+fvzKTEGu6IxyDk+OHFEEvPrOctxrr8P7x4/HMP1QjjgoJ6kpykOYLJTmJ9TFIzzeD1wcODh/4+s7ATBEeQcAc4xwIMY4EH08yAuBIO4wIOY8MHvzIJMAQg3wp1+V8V5lCvK9yzXbaIZhJ1uE40XfTTdHbjlQaQzHzJ8PqSBwc988DFmNbW4RAAXghz9PIgJH/7OmQ9xYnS1TwlAp3GLwS69Pk5y49DH4jHBcuUOXOQC+295EBnMh3TGkBbmzxeezULxCAzwQCgOOUfDXwB/PgALiyvRNxDA1nMnENReUJODv7hiMGHzqMdERivXy3zn5YJs0sfr/Gyw05iYxjqPOukbwoFwDGb4fEhnPqSF//kZs+KRWQsZkWe8Rh6ps+JgQUOgSFYsF2ZNIig5lGPGOYjASdRz1J4TEIN8k52Dece/EySZOjk8+l/teKtmOnGqmxBc7HJciZIEGSYGnT7J8py/KDfeFQe1f1OD1OUvCGDDqRbZzq8Lf5K44XtPg33ecvEPSYa+e8f40+nttGKryk3Uexq0SMA8mgRInc2RFoR7VKZdq9Jn8R7VIN/TIHWn3vti9vuERrmiPtDfz7PtUtfoA5M+CXpPg3Saxs7BwPOuZuWA9BSMgUfJLibbpZULWRc3uSb5umHx/BSMSR8P/Dn5KwS9RX0GyyHx52BnivBn6aHaNYTvaRDbmvzD6akLJ//Q6qPaOYzvaWCK+Vp9UhOps+KQ0D0NqlxNA11lJP7gpI9tD4FBvvQlnOl6vmemqQBs3UR+i3VPg6qPUwYdI2K6J27+asmSMn9dG11Hsd5SUBpyp/Fw8A+r+3juiTv8NVabPop/8ARWOMTf148/qHap/bvNLw7zqNRU8Q/X+VkdZ1VfN31MYxDn9SIiN55bKImeR0cYqbPiYMoYrd8dMkYryzPJFQWIFY6HjDERFYUq12rjVOEY7PSkTwwVhrZCHESm7FRR2Pr3UFEwVa7DOOvsinkFihnkKie6VU6qPjo71XHT6qPYqfUPRZ/BVDrEn/L568DfML2nwTbOQ7ECpdo50u9p8OivKYbUSRysqnmk3tMQar+spAaPzbgM/2PqJdFzdfcJRbmcoygjM/zWutBvLy+6CXzVI6gPv5pY1ke1cyTe06AbP6lB7OCKPFPVpfYPxS6VR66Mm4tdj05ZjMdmXIarSmsVfUS5QoURPm9xcSUm5xUC4JieXwK+6hH8YcF1Gr+DBzuH6Tl/bRykNn/2GPTGnxWDYbkvL7oJ/LZHUJ9b8JfBn9EuL/OLYgNUEV7nrRAenbxIjkHVLg1/VgzmFwIcmJ5fHIrBi66DfKKLPlDs1M13ir6ynRDkcoOdXK+PyV9TDKlzqyKSpVljHv7AhK8MQ/eehvDvP26Yj+Vldcjw+fHeiSNYe7I50kDWJ5K1hs+7u24q/mXaJRj1+n8CYPjp3s/xzJHdOB7509k2fbgg1+k5YI2duqU0NzshmxGVG2nO1QaxgzFhPLl+3Ez9IzHP+S8srMQ/TV6EC8EAZowuwZoTzYI+4vmR86I8vrjwBjx+eCce3b0BTb0duHXD62ju7lT0Vao4o52aihJI/HP+TBgA01K5VyQBfwCzx+Cpo574i8bgLwDG8dN9Ygz+BfAn6eHAH9PZJ84vQve2+Q6yINs8CiwsrMA/TVkcjcGTzWZ9IPtHNAbXh2Jw/eto7o3EoGbcTNcLmOyMNDf4k5d5FA7+4XarI0WQmisOUoanZIBqhm7LkJXMXytXzDijxyqzcnB12Rg8cWQXApzjnvAfrRL1+fuG+Vi95Db8YcG1uLS4GgDH3XWT8f1xM5Dp8+OxmctQnzsaU0cV47LSGtRk5eGxWcvw4PiZli6T8wrx2OzLcUftRIADcwvK8PSC6/DhZXfgJ9OXIIP5ne1Uj8Vipy3zNmTs8XIIVTcNj6b+bTzq7HKqADjuq5uK3sAAfndkF5aV1KIuJ0/oO1TFPDlvBT689HY8OmUx8tLSUJyehf819yrUZOfjitJaPDhuJnJ96bispAZT8otw75ipeGxWiNeIPn8zYTYem7UM2b40+Bjwj1MW4/2lt+OlxTfiitI6s53SWGj8VRw/KL9ZdurGRxy/OKueJOCvMlMTg8p4/X3DRVi9ZBX+cNG1uLSkGuAcd9eKMXgZ6nMLMDU/HIPZ+fYYzC/EY7OW4Y6aSQA45haUCzF4KTJ8vtTjD5q+4plHuYNdHubR+8YoMZidJ9gFTM8vkWPQr4vBWaEYLK3BlLwi3FunicH62Xhs9jJk+/3wgQkxeBOuKKtV9DWsCNjmVBc7pbFyiANrXFITqZM4AOZ7VOKBWPY0xHiP6p7aqUj3+fCH5ka8f+Iwbq6agAyf32r25PwV+J8zQm+fG5MzGmuX3oHrK8YDYCjOyJbUuKGyHg83zMMAOFZVT8S/zliKDH9oAei+sdPxcMM8BDnHrMJSfHz5XZiQV4i3Wr/CA/Wz8bsF18axp4HJY6V8tY+jUn1pKIgdmv6NPIpVnE6Ug11aXRl8zIeV1Q34+PQx/O7ILvgZw711U622M0eXYsPl38T1FeNxtKcT/6V+Dt66ZCUAoCQzW5JbnJGNhxvm4dqKccj2p+Hhhnm4Z8w0AAzZaen41xlLcWlJDXqCA3jyomvwD1MW4pNTR5HjT8c7S1dhVkGZs51ihWONj8ZO7fiJ4+PgHzFjZPkDGO6pC8dg0x68f+JINAbDbZ+cfw3+54xLEeQQYrDe4kyUa8UgD0Zj0JcGMIb7xk4LxSA4ZhWoMTgLv1twXQryJyjn2P9g9zSY93D5fD6srGrAx6eO4XdNu+UYBDCzoBQbLv+GPQYZUJKZI6kgxWCaEIOMIdufFo3BwACeXBCOwZNHkeNPwztLb4vGoJudlk2xXS+scxz3bqQmUixxEDN5sRKBPXOEktGpFYA2QzbJDZ13V80ktPR24dNTR/Fay0EUZ2ThjuqJAIAx2fn49php2HSmDSs+fQXL1r2A//fAFlRm5eKZI7vR0tOFvmAAP9y2Fge7zkrZ53PNezA6PRM3V9YDAG6oHI8Tfd3447H9+FHDfOSmpeN7X7yLn+/dhMcPbcfttRNRnpljrwSkoXKwE0rGq6101ApHHfc4+RPlaSpKueI08KhWOh7tuq1qAsozc/CnloPY0N6KI90duLNmktX2kQnzkJeWjoe+XIN7v3gH39n8HracbUNuWjqebWoEAHx4ohm/PrhNsuq55kZ0B/pxY+V4AByrqhuQm5aOF5obMSZ7FO4dMw1vtn6Ff961Abetfx0cwIP1s1zsVKtX7mH8NBWSeEyiIB4SR5Y/QIjB08fwWsuBUAzWhFbmxmSPEmLw5WgMZufgmSN7ojG4NRyDEofhGKyqBzjHDZX1oRg8Ksbge/j53i/w+KEdoRjMykkx/gQhjvOdWkl7mV8EuSqPglwrBlsPYsPplmgMhttGY3C1HIP+dDzbtAeIxOBXSgw27YnGIOdYVTMxFINNjRiTI8Tg7vW4bf2fojGone/iuV4oJ5pWMGzjl5pInT0OEahZ/TDdo5odfpXw7o7TeGzmMmSHVwe+UTsZzzTvwaRRRQCAxs52AMAA5/jR9nUh+S67rB8/vBN/N2kBbqmegJ0dpzB9dAl+ceBLBDnHuLzRAICd1/yVdPqMghK0tXWH7Ix5TwML6yU6vVLdcKGdNH52U7xDI8/WP6I/aO2K/KwowhQeNXZ9M3xraU5hGR6buQwdAxcwY1QJFhZVYmN7K8bmjgIAbD7bBoDhtZaDeC3853kXFFYYrerov4A3W77C7bWTUJ9XgJXVDegLBvD4oR24qCh03m01E8Hv+LF1zuT8YpkPJ/6Yg79yJQ4c98qI4xvvisPI8Td7dGkoBjuVGKyZjGea9mDSqELAikEmxKC7uY8fMsQgxBj8tnTOjNGlaIvsj0gJ/oRzTf1b4y34pTRPaOzT2QUo54XaWTFYoMRgsRKDZ04oMcixAJVG0zsG+vFm61e4vWYS6vMLozF4WI3Bv7POmZxfrOw9EPQ1Xi8ix9XrhWyn656GFH+yInUSBy5+YHLWp3Nsq7mhgXRYLYnsRP/VmGkAgN5gABcXVwEcON57HsvLxqA8IwfnLoT+vGtRRpal23UV49AbDODDE02yPqIjcY59nWfweXsrVlSMRVN3BwDgyUM7AA6cH+gHAIx98zc40t2ht9PKah0GQltVuD1fzPXjHi+4Os7mr1Z7q1snu8Qv+gmvOCML15SPxYm+bswYVQJwoC8QAADcWzsVG0+3oHPgAgCgIjMHh7vOYWJ+IabmF4cTCbVDsTrheLZpD+6onYS766ZieflYvHf8MNr7etHZH5L59JFduHfj2w7jPJTP+XvwDy8YQf4gxmAggIuLqgAmxmC2HIPh/rQxaOkmxGCXLgZ3ApzLMXi+Q29EKvAX6drWvym8heQipvkFWrlSDI4uASDG4BR7DHafw8Q8MQZVfZQYPLIHd9RMwt21U4QY7JFj8LO3zWZE5DptXrQddkmwIMSB2D6VlxtS6laF8V6ccLNIl8Q5PcctyRU7QvTeFAvdl7uzZhJae89j3ofPYOFHz2Lh2mfxT3s2IN3nw31jp2H7uVNo6e3CgsIKXFpSgyvK6vDWkpX47tjpAIAA58j2p6EudzTKMnNsSycvNu9FcUY27h8/C1vOtGHLmRMAgHUnjgIA/q8pizA2twBPLrwWL158U3Rvhc5Ot3uO4jhqn6MWdBPHXRrHOGDrX+FjCJ/zv2/MNGT6/PjvjRst/i766A840t2BVTUN8DEf1p4MjfX3xs1EYWYWfjnnKry0+EbkpaVjIBgEAFRk5aE6O8+m5ButB9HS04X/0jAXeWnpeObIboAB286eRGvveVxdPg5LSmpwS00DNi6/GytrJipjI/qdOs4JeM5fKzdGjCB/PsbkGFz7LBZ+JMTgmOlyDJYKMThOicGcUSjLyrX5uy0GwytPUgzmjdbHYCrwB1P/w/OehvvGTJdj8CMxBifKMTh+BgozsqMx6BdjMBfVOfm2cXij9St7DIJh2zkhBktrcEt1OAZrlRgEZNuGZE9DgngcYaRO4sCVrFbdtQo14RXaSVk2l7NhVa4oP3zuTRXjUZ6Zg1dbDgjNOF5o3ovewADuqJ6InkA/7v3iHQTB8fFld+K9S1fhrdav8KPwn3Rd3XYYacyHI9d9H0tLqm3Z+e8P7cIAD6IoIwsvNu+1fv/p3o14sXkvHqyfhUPXfx/TR5XgZ41f4EIwoIxPDPccxfHQ3ks17CXh0oDFx6Guf0s/A49c4EPkz2iXyF/o3501kzDAg3juaKNk1x+P7Ud5Zg5WVk3Av+3fhGea9uC7Y6ej/ca/xsS8QvxgywfY09GOje0taOvtxgPjZ+L1i2+x8RfkHK8e24+ijCy0X+jFK0f3Ahw4P3AB9218Gxk+Hz654ht4auF1+PjEUfzx6D49f6qdIh86f9XGgabaVeMgHgpHkL+bKuujMSh0/0JzYygGa8Ix+LkmBretBcCxuu2IHINc6hi/P6zEYFifn+79XIjB+/UxmAr8QdO/NB+63esXOTfZJbRX7LqzZmI0BgW79DE4A+03/iAag53t2Nje6hCDQJAHlRjcB4DjfH+/PgabhRiU7IRgZ6zXC+4wfsKYDWYeTQKkzl/HXP0k9Cs8PJS5uZnBlfYW4TDIjTQ3NDAczvL7sbioCrs7TqGtt9tBH1GAQb6ACXkFGJ2eic3txz0upSXIToM+B1Y+FPtf5lvzpHP/MS8ROv0uHGdwlsvkcavOzsf43NH45NRRj3Ld+ctNS8e8wnJsPduGjv5+D/oY/MPT+HnxV479K38Q21/HTBH+svzpWFxUgd0dp80xGCN/sGIwI3T/PQn4O7DyB7HHoJd5VPe7pv+hnF+qs3MxPrcAn5w86iLXIEDTXTQGT6AjfFvLCJOdhu6ix2OLgwMrH6K/jjm08HAvDl4dlMsH4r3Xr4gBgN6BAXx0okkJRJe/zmYzzK7Pgc4zso3x2uk4gan3pGMIGC8QddIOh8qjQYZx4jPJdblQcPnrse5OHLNe7CTwYZTrcA8z/J/z/Rfw8YlmjR0O+pj+doBRHx4VoLtwGePHI1KEv96BfnxkjXVi+IMtBlOQP0u2yzzKHeySPo/oFU8AABKsSURBVCdoHtV8PdbdhWPdXYo+zmaZ+wp9tcUgvF7oVcMTsKdhMPNoEiB1blVo7plp069BvKch/ntU5ueW7ffMYNCHac4byfc0ONk5mLxX07+RR4NdNl1FuQ7jDGXcxH9GfQQ+RB+xyfUwzjrdh/I5f5M+2gH3CuLPWR/FzmTmL6b5BXb7TOMMJ7scxlkrV9THxT+kww7+ocq1bFL91f7VZmfM1wvmbGeKILVWHKDLeoXPTMmUTW3lE0L/jWXp0Va5G6oHNZMVs1BbImqudIzyTXaqf+/e0lG1U6xwNPoYK4x402W1HydONRm6m13MYdw8VQA6fZx4dPArSR+DXNH/bNWbk1xVH25r5rxiRPxpP4vyv5b8qbY4xLN2fonwb7JPN0aqXUp76avOLqf52TRveZhHtfO6vql3fcRmolxFHw2tqYbUXHEwZXhwqQCkhNJjBaCVK+pjqkhUubFUJKpct4pElavRR2enmlnb9NFk7IPKlNUVI7eKROlfm6kPcQXgecXIpI8H/pz8FYLeoj5uPDrKjZdA4k+Sm3L8QRkv3Tyhsc82v9jVjsod5PyilSuOl2HFCKJcgz463R1XsFz8Y7ArRoOhcYSROisOxhUBh8yc6TJZDxmjbQ+BQb70RbzH5+WemSJX203ktxF4T4OTPvFCHRMuVgxOdolfnCpUpaklV2nInUxx8A+re2/3xKUTnTa/2fRR/CPe5/xtbqb4R6wg/lKbP6g8CTbHtWfKrYJWx1mRZ5zvHPwJqvniOLvoE5HrOj9rFE3ongZhfk5RpNCKg9fMWMzsPGSMiagoVLlWG6cKR5MZO1UUsdxztFU4Gt10+oh2Mo3cwcI181dTfA92xbwCxQxylRNdK0ITjw78afVR7NT6h6JPIlegYgHxl9r8WeJjnV8UtcQDCV+BEvVhHvRR5y2Nf6hyIwKGZU+Dyc44+UsSpM6KA9SE18PjS7YDTM4gdY11lY6tqa6a8bCnwaiPh8o+lnuOoo7qmEnnOehosnMw4CadDPx53quh60sSJI+H2p0q11aRmDhV/Ik5jJtjRed2T9zEo5udXNbHJMMriL/U5g8a+6T5TqOTqZt47TLpoSoUy94w16fFvM7r2hOc/VUr18Sj7sTURGqtOIjwWgFEfnKqALQViVOl41aRqHLdKpLB7mmwmyFl4Am95zgIeLKLyXY5VQC6e55Qz/O6kqKOfSwrRlAqHRc73VaMdHJV3eK2E4qsGED8pTZ/imryZ68rRmL/LvMLg7N/6OTq/EOVK31WHC3mFSzFTif/0M3PWrmQ7bRk6BRKTaTWigPcMn9dJpvY9zREvzhVOKpcrs9gbfpEstRkeU+DIMvt3qAXJMlz/nZih+KeuAd9hvw5f492egXxZ5CbIvxJ+hvskj4naB7VfNXr46KzsS/zNOl9z5mid8L3NCRwHk0CpN6Kgy3z12SkTpl/ou9RDVuF41YJaDLdmFZU4K6PpVcCsmWne+I2XUW73FZQPKwUuVU42orCwzjrdHdbKYq1wpHGz6APvNg5SBB/DnJThT8o4+V1vnOyy2GctXJFfTysYECUb/APVa5lk+qv9q82O2O+XjB3O0V7UxSps+KgqwAcM04PFYBRLpOzRF3a6WVPA4M5MzVWUIJ8k50j8Z6GRGXI3PYh+pWe8zfow23NnFeMPNoZD4i/1OZPZ59t3qL3NLivgDhcLzS0ynK1DVIKKbHiICewI3CPSluRqHJjqUgGu6fBa0Wis9MlY3erCMJZeKy5MhM/mPrXZurDVAHAQ6Wj1ccDf07+CkFvUR83Hh3lGvRR5MbCIfGX2vzZ2rutpNhP0PAXx/yilWufX7Q6iOOs00enu+MKlot/DNmKUbR9rBwmC1JoxUFX4egyWQ8Zo20PATNkyOKXv7D3NLg9R+0CJn0S7HSUJYybo10ulRt30tHBP6zuvy7P+cfyvLoMpvlE/GnsTFL+EEsMQu0/orNTBS200SnkON95mF90/LnpE5HrOj9rFE34ngaP14sURRKvOKgZmSZjFA9L7YSMMREVhSrXamPIvE2ZsVtFwUxy3SocjW46fUQ7mUauTR+HCsP6ZhKgthN1jcEupwpVHTfVP7RqayoKdbykz5qKwrUiVMdlECtionyTXEuGVzuZcoqZQ+kX4i/l+LMPSywrM+JqqskuKHbFOL+46qPOWxr/UOVKdjIPdnr0V50+gEEfdcwGP48mE1JnxcExw4OSCdJ7GuyJcYzvaXC75+gAZpJsuydKz/lrKx2Tj9nsdHvOXzsQBn2iIP40yqYQf3DiUDe/aJvRexrMck08xmFniiIpVxzMeZkhw3OrANSMU5Shy5Q93mPU6sN0+gx2T4NuQHQZssZOp4pAe89R1EfN2Jmtra0b4RfdMal/7YnqOMdYAYjH4qkAtPxBqXRc+HNbMdLJVXWL205FHw+VeeSjPBmoq32iMsRfMvIXWwxq+hcbaitwjV2DXjFiRrvsPMazgqXY6eQfuvlZKxeynZYMr3Y6z6OpgJFfcWByNsjC/8/CBxljYBzwMyDAuSaTpfc02PRhDhWUVh+42Cnr4w9vjmThAGPh4GFiU+FLlEOGQDBoMNvBLml4NXZxg13WZ3rOX7VT4pBF484H4RX6XJhzib/k5S+mGByCeVTz1aa75xUoXV/maTKWeUtSNOF7GmKYR1nIP/zMJ3MY/n9b8pCE2URSrTgw5UM0C2OoysqLHjRldm4ZqZjlO2XeNrmIypY1dc5gEUuF46CPKdONaUUF7vpYejnZCVTn5FvubeJMPIWFOazOyrM3UFu7rqB4WCky8airgJVhdRxnne5uK0VO/uF5BUrRRzfYOrkO+lS5cMgEFYg/VW7y8we5ucwhmGyu2j+c7HIYZ61ccTw8rGBAlG/wD1WuNUYMNgXc7Iz5esHc7RTt1dkZ/uB1Hk1GjHDiwOyfDLE+d3RZNGOXskilireqeflniFm2WEVw4TcpMVXkgisVhSDfpo+oiyHblvThsj5Q9BHla+Ua9FHluuqjjp++KpxTXC5xo86R8vcox3MKSp3tgof+ucKfap9ymjOPdjF2fRzkavVR+NPKhWynm7/GZScc9Zlb5MIhRDDiL9X4M8ZgmX1+EQfS1S4426WV6zC/6OSK8k3zqG6cbfMdYtRH4cOkj3H8VL9ytnNOHDGYLEiqFQdISScLLa+BwceAK8rq5KTPawVgYsW1IlHlxlKRDHZPQ6wVib17Y8buVhHAvSK4onIcfCzKkU/KmpmQRSscltZp+h+mCsCDXXp9PPBn4lHqTvEFDxWJWa5BH6Ncuz5XVEU59DGFM+IvpfiLOQZtugp6DnZ+0co1zS9KW3GcdfrY2io86vzJyT+GbMUISsf664XKoW31IYmRFIlD1AdY2NWjxyNHrq8cj9qsfHtGp8sc1SxVygBNmaxaDahy1cxao4cpQza1d1wRUD87ZOw6O036SO11cp3b1+bm4/q6BmtqinDlCzPm8zHhu4lDB7tEfaGxy3iOpjI02aUbN5tfaDjzpI/Ct81nTDw6yDX5h85Ox75Dx2pzRtk4tP6xyCSmzr3EXzLzF1MMZudr9DPZ5TBfGOc7r/OLWtm76ONpfjbId5RraG+UO9jrBVCbo59HrXSPJXcSkRSJg4roYIaqIR8Lbdp6pGGePWNMREUROQbEUOFoMmPPFY57RSHro9FNp49oJ9PItekT+z3HR6Ytgg+weBG5irq9G4eQqw9ThaqOm66igGqfpqJQ7ZI+ayoK14pQM0C2CkfpO6YKR61U3Cocgz9Br88j0xZqOfRZlx7iLxX58xyDE+ZFBWvnF0VNE39e5he4zS/qvKXxD1WuNUYSYYpczTi7+atOH5EPo1x4s1P47ZHpTvNo8sP/6KOPPjoSHUvDKA2s3WF4+FBDfiF6Bgaw+ewJISuGvjG3Pth/154X5xvHwA2/a+Sb9NEcdpVrO8+jnZI+XuWGDtw/cQ6+O2kO0pkPaT4f0pkPfuZDGvPB5wN84eVQBh+YLzqFMZXDwAA2n2lz0c+gkON4eX2zpyrIy5sOjR0rcnX6uPAYk52D0Qc2DtPC/Pl90QuLtXTK5FAk/hJh52D0sfMXdwwODGDz2bbY7TLqp7SPY35xlBvzvK7xD89yY/TXGO00xWAaY/CHbztZyQSTOUwWjFjiYIKwyIMggCB46B8P/XdhcSX6AgFsOXcixnuMYiaryzg9VABSgquUBAyDqEjsZkgZeELvOYr6qBm7Tp/Qge9PnIMfz1wMf8S5hf/6rIsMC3cZksPBEUTkvyqHA9hy7qSSqdvNt/EoHktgBZDQFSOdXFW3uO1U9IlhxUjHYfQfpDvjCPMmxSHx56zPCPA3uBh0mUcZNPMWs9tlGjfTioD0WZnIYl7BUsbZyT9087NWLmQ7LRle7TSvGLlxGE0YkjtxYJybUqahBxc+RW4Bic4d4KF/AzyIAeu/QQwEg3iz9Sv8fN8mNPd0KsJizEiTrcJJeOYt6BPzigpQmzsKj0xbhBvqGmzZcRrzRR1fWmoLT1IIPTMe9MJhvHaNZIVjlBvjX9dT9dG6Tfx21uaOxiPTFmo59DOfNYmxyPP+AIKcgzOOAEc4Dok/+fzk4C8hMbh/E5q7XeZRTysoTuPlciCh89YgVooSoY/N7xhqc/Md51G/stpgcSkkHZQ4hDGYxCHy/b3jh7HuZDO+PHsCrb3nMWB7Qc0QX5A9TzQO+rhONEM98UXhZz5UZ+dhVlE5llWOwYqa+qiDJ3jSEjlce7IZ286ewLHeLuEFNYbxcJsQLB6deNCMx0hNNDoDYkpM5YZpzIfK7DzMKSrHZS4cDiZxIP5Gnr9ExqBtHtXZ5TaPau0zi9GOm2mcbfOd8rurPl7kKgI9JUy6eZShOjvf8zxKiUOM4NZ/Q5NNJHngSvIQ4BwBhJw8MpFFjkeTDYDz0PJqZJnVq5//pYEJHyKTTchRWXTTDpjl0JELTBrzwS8djy6t+RAaaM5C4x3igjgcKiSKQ2uiYgALvzaSs1AyH+GF+Es8KAZTH4nk0Cc8WsssmcmXNCBZn6ogEAgEAoGQnBj5v1URBkP0TzGEsq3Q0qlPTLU4AOYDAwcD4AOHn4WzZRbOklk4U+bhVQwmn06wZ6/iJhyxchGXzqwlbaVSjW7kCcMXehV7SHCo7CEOE48h45BF5YGBYnCIQDGY+hhSDlnyrTKIGPHEIXp3KPSJCZ99YacXR5CF//ngQzDs7H4WvScbjCyphR1fBDl8CHaHjy6JyW8TVJ0+uuzmY+JjQxAkRAlj4ODE4ZAg0RzCWmblUjz6GQvxQfwlFBSDqY+h4DD6ZBMEDpMPI544iIisOoSy5dAUxsJ/sc+qhDgDY9x6TNNnPTIWzpAFRxe3b5CzyxCdUXxLmfUyIBb9r7hhx8eix9TpKpIlE4fDg0RzGL2vGhls4m8oQTGY+hjSGExijPjmyAhE14xsxok4MiK7vBHKhKObJ2Edi2ziiZjDNXIJIuRs1vqvkPlaWbO12YdJmTQAaSNPVFJ0JxVxOJRILIdcmLA4on/FmfgbKlAMpj4SzyHTyE02JE3iAIfkQXTmiJNH7r2JO4Ah/AatiyeNqSMMpv3GlF28kXt00Xt3UeeXltUEZ4+uiBKHQ4uh4ZALTBJ/QwmKwdTH0HFol55cSKrEAZ6SB+ERIeH9D9FjEB4fst+fI8iwXNT2srPIY0WwFkJtm3+gd3bicHiRaA6jIP6GAxSDqY+h4DCZkXSJAxycHqpjW88a29vLcghOEFc4VeeNZMwQAsFq4eDsxOHwItEcEn/DC4rB1MdQcJisSMrEATonht3xoTi1el+OEBuiS23MfkxxdMDd2YnD4UciOST+hh8Ug6mPRHOYjEjaxAE2x9U7vvKL5jyCV6hOa3swSOPouvNEEIfDi0RzSPwNLygGUx9DwWGyIakTBzhszOFKg6Q2IgXBlA8m9/bi7MThyCBRHBJ/IwOKwdRHIjlMJiR94hCByfH1v1EExAyN5zq5djyOThwOMYaYQ+JviEExmPoYBg6TASmTODgh5Q1IUgynUxOHQ4Ph4pD4GxpQDKY+UjU5cAL9kSsCgUAgEAie8bVYcSAQCAQCgTA8oBUHAoFAIBAInkGJA4FAIBAIBM+gxIFAIBAIBIJnUOJAIBAIBALBMyhxIBAIBAKB4BmUOBAIBAKBQPAMShwIBAKBQCB4BiUOBAKBQCAQPIMSBwKBQCAQCJ5BiQOBQCAQCATPoMSBQCAQCASCZ1DiQCAQCAQCwTMocSAQCAQCgeAZlDgQCAQCgUDwDEocCAQCgUAgeAYlDgQCgUAgEDyDEgcCgUAgEAieQYkDgUAgEAgEz6DEgUAgEAgEgmdQ4kAgEAgEAsEzKHEgEAgEAoHgGZQ4EAgEAoFA8Iz/H0tDi+zLhu7fAAAAAElFTkSuQmCC;" parent="1" vertex="1">
          <mxGeometry x="1827.67" y="1867.75" width="269.33" height="85" as="geometry" />
        </mxCell>
        <mxCell id="QFzevljC2YXcx73YAN4w-88" value="" style="shape=image;verticalLabelPosition=bottom;labelBackgroundColor=default;verticalAlign=top;aspect=fixed;imageAspect=0;image=data:image/png,iVBORw0KGgoAAAANSUhEUgAAAgQAAACSCAYAAAA6otLhAAAABHNCSVQICAgIfAhkiAAAABl0RVh0U29mdHdhcmUAZ25vbWUtc2NyZWVuc2hvdO8Dvz4AAAApdEVYdENyZWF0aW9uIFRpbWUATW9uIDIyIFNlcCAyMDI1IDAyOjI4OjEwIFBN77zQgQAAIABJREFUeJztvXd0HEeW5vvLgi2A8N6SAAiQBI1oJHpSoiSKkijXRrbNTPdMa9Q9u2fbzJ55Z/ftvNmZnd533u5M78zZHdM93eppqeW65R0lSiIlUfQESdALlgAI772tfH+gKpGZlVmVZVEg4tOhUBV548YXcasq7r0RGSnJsiwjICAgICAgsKhhm28CAgICAgICAvMP4RAICAgICAgICIdAQEBAQEBAQDgEAgICAgICAsIhEBAQEBAQEEA4BAICAgICAgIIh0BAQEBAQEAA4RAICAgICAgIIBwCAQEBAQEBAYRDICAgICAgIIBwCAQEBAQEBAQQDoGAgICAgIAAwiEQEBAQEBAQQDgEAgICAgICAgiHQEBAQEBAQADhEAgICAgICAggHAIBAQEBAQEBhEMgICAgICAggHAIBAQEBAQEBBAOgYCAgICAgADCIRAQEBAQEBBAOAQCAgICAgICCIdAQEBAQEBAAOEQCAgICAgICCAcAgEBAQEBAQGEQyAgICAgICAAED3fBATCAxmov35deS8hkZqSTFpqKlII2+3q6eGtDw/y+MMPsSQhISBdg8PDNDQ10T84SEpSErnZ2eRkZYWUfzjw7kcfk5qSwo7bbrUk/+zLr3D71q2ULi3WlA8ODdHV2+uxbklRETabf3FA1YWLNDQ38bX77ze8fqO9nfGJCZYWFBAd7f7T0t3by8DQEHnZOSTY4/3iEKkYHhmho7vbcHzHJya40d5OUX4+sTEx88ZRQMAbhEOwSCA7HDz3+1dJT00lMSEBWZZp7+oiPjaWPTu2s2ndOsu6zlRXExUVxfrVq73KTkxO0tzayvT0dED83z90iNPnzpOTlUVBbi419Q3OH9k8vv31rxtOQJGK1o4Oqi9f4d49dwCQm51FYkKi5frNra2MjI66lbe0tXHsTJWmnQS7ndTkZKWs8Gt5xMXG+sV7YHCQto5O0+vvf3KIlrY2Ht63jw1r3D8bL7z+Br39/Xzjq1+hvKTELw6Rirrr13n9/QP8+Z/+AHu81tnp7O7mud+/yjPf+ha52VnzxlFAwBsWzq+oQFCw47Zblcl/emaGIydO8vbBjyjMzycnM9OSjis1tRTl54eY6RzaOjs5UXWWJx95hBVlpUp5040b/Oqll6m+coWNa9eGjU+gqGu8Tkd3t/LeF2fMEyorKqisqFDe/93Pf8Hqigr23XF7UPRbQXpqKmcvXnRzCFra2hgdGyNmATluAgKLDeLbuYgRHRXFhrVrOHzsGL19/YpD0NDczLHTZ2hpayXKFkVeTg537txBblYW//rCi7S0tVHb2Mjxqir+/E9/gMPh4OMjX3Dx2lXGxyfIz81lx223snzZMqWtG23tvPDa6/QODJCZnsaWDRvYsGYNAK+++x5dPT088+1vGfIcHBoCID83R1NeXFDAM9/+Fpnp6UrZlZpaPj12jJ6+PhIS7KxaXs7du3cRHRUFwIWrVzl89BgDQ0NkZ2SwbdMmXn3vPX789Pew2+38zd//A48/9BCrypcD4HA4+Kuf/S9Nmac2mm608quXXuK7TzzBux99RE9/P5lpaWzesJ6Na9dy8LPP+OLUaQD+8m//jme+9S3e/fhjsjMzeHDvXq/jHyi86T5TXc25S5fp6OoiJTmZZYWF3LFjO4l2u5uuzp4efvnCi9xz+27FqSkvLeFE1Vl6+vrISEtTZKsuXKS8tISLV69pdJyurubClSu0dXSStGQJRfn53H/XnUpq/b/9r7/n4X37qLp4kRttbSQmJFBRVsp9e/aAcynswKFDXG9poae3j8z0dFYsL+OObduU658cOcK5S5eZnJykuKCAovx8zl++zL//7ncAGBsf5/1PDtHQ1MTE5CTZmZncc/vtFBfMOr2/fuV35GZn0dbRQXNrG3/xox8GZIPGlhaOnDhJW0cHNpuNwvw8dm7eTEFuriUbdXR18fbBj+jo6iJpyRLu2L6NA4cOce+ePaxbtQosfA8EBIwgNhUuYjhkmRNVVSxJSFDWoycmJ3n1nXfJzszg333nO3z3ySeYnpnm/U8OAfDHTz1JanIye7Zv58//9AcAHD56jPOXLvHwPfv40dPfozg/n5fffIux8XGlrQtXr/LQvnv44R//EZnp6bz78SfIsgzAyuXLPUb4xQUFxMfF8fyrr1F95QojY2PKtdysLOVHrunGDV55+21uW38LP3z6ezx0zz3UNDTw4eFPAejp6+PVd9+jorSUHz/9NHt2bOejI58DEGXxh9JbGzbb7I6Gk+fOKv3NyszgPWd/9+7ezS2VlZQUF/OXP/mxWwrZ2/gHAm+6+wcHefvgR2zZsIEf/8nTPPbQgwwMDXHAoO2hkRGe+93v2bZpkybDkWC3s6yoiFPnzytlU9PTXLp2jU3r1ik2x5k1eO+jj9m6cSN/9v1n+PoD+6lpaOCLk6cUGckmcbyqim2bNvKjp7/H5g3rOVF1lustLQAcPXWaS9e+5OF79vEff/B9dm/dyuGjx2hobgbg3MWLHD11mrt27uTHf/I0lRXlHK86gyTN7Tx56c03GRwe5olHHubfffc7LCsq4je/+x1Dw8MAREXZuFpTS25WNk995ZGA7fDmgQ/IysjgmW9/i6e/+Q2yMjJ4+c23kC3YSAZeevMtoqOj+cEf/gHf+OpXOH/pMuMTk0jO3TTePqMCAmYQGYJFhrcPfsTbBz9S3tvj4/nKffcq68qxsbH84eOPk5y0hNiYGBLsdpYvW8ZRZ1RrhDPV1WzeuEFxKrbduomEBLvmx3/bpo0U5uWBM0V+8eo1hkdHSUpMZPWKClPdLo4/+INv8+p77/Pae+8DkJmexsrly9myYQNJS5YAcOzMGVaUlSoTVNnSpezcfBvvffwJ9911J5eufUlcbCx379pJVFQU5SUlbFg9myGxCm9tuLB5/QYl4tu4di0XrlxV+usJ/oy/VXjT7ZoAExLsxMfFER8Xp50AnXPo5NQUv3nldywvKeGO7dvc2tmwZjUHDh1m3+23I0kSl65dIz4ujmWFhRq5vOxsnv7mNxWnKC87m4LcXLp6ejRyFWWlVJTOLhVt3bSJg599Tv/gIEuB29bfwsrlZUo2YlX5cuLj4ujq7qGkqIiLV69RUlzM+tWVTm5rOH2+monJSXBmOa633OD73/4WOc4I/O5dO7lw9QpnL11i95YtACQtWcJ9d+4J2AaucY6JjlY+t3fu2MGdO3aABRu1tLbRNzDA1x/YT1pKinNMNlKn2jDs7TO60DfhCoQOwiFYZNi2aRPLS2ZT+b19/dQ3XeelN9/iyUceprykBAmQZQeHvjhKV08PE5OTDI+MMONwGOqbmppmZGxMk7aPj4tjy4YNs2309wOQotrY5lpHnpqassw7OSmJ7zz+GKNjY9Q2NnKjvZ0z1Rc4fb6aJx5+iGVFRfT1DzAyNsYvX3xJqTc5NcXU9DQjo6MMDA2RkpysyQbkZmf7MHp4bcOFpCVzE78v/fV1/H2BN90FeXmsKCvlhdffoKSoiLKlS1mzcgVLXE6MDLIs8+IbbzI9M8ND++4xbGfNihW89/EnXLr2JWtWrpjdU7B2jZtcVFQUQyPDnDp4jp6+fmZmZujp63Xbn7JEteFSckbsrk2qUTYbjc3NHD52jIHBQWR5dpxnHDPgXG4qK1mm0VeUn09tYyMAPb194HSU1VmDiYlJ+gcGlffJzsk7GNh+262cOneeuuvXKS8poXJFBdkZGUr/PNloYHCWU7Zqv89SnaPl7TMa6N0+AjcvhEOwyJCZnkbZ0qXgjBxuW38Lz736Kh8cPkx5SQlNN1r5t9/9jr27drG8ZBnxcXE0NjdzRJXGVUNmNgsQrqgjwW5n3apVrFu1itu3buPZl1/myMlTLCsqAqAgN4fb1q93q+dak1b/6Bu910Od5XDBWxtW9JrB1/EPpm6bJPHkI48wNDLC8TNVnK4+z8HPP+eBu+9S9nv09PWRYI9nYHCQM+erufUW3YZIeXaiX7tqJWcvXiQ/N4fm1jbDWxWPnDzFsTNnuO/OPVRWVJCclMRHn33uTIzPwbUMY4SXnEtTd2zfhs1mIyMtjX957nk1HSWV7knfzs2biYnR/hyqJ05vd7FERzmdvulp9LstRp1LXC79d+7Ywe4tWzh9vprLNV9y+NgxNq1bx4N77/ZqI6Pvm9FtpFY+owICegiHQID0lFQlUrp07RpZ6els3bRRuV514YJp3diYGBLtdvpU0dTMzAwnzp5VNjgFihNVZxkcHmbv7l2a8gR7PNmZGQwNjwCQlprC9PSM4vDokZy0hOHaEU1ZT1+f8joqKgpJkpToEmDAuaHRBW9tBApfxz8UupMSE9m7exd7d+/iwOHDfPLFUcUhSE1O5rtPPsnRU6c5cPgwhfl5hpsdb113C7/47W85U11NSXERyUlJbjIXr15lzYoVrFmxQimb3YyYaqk/E5OT1DQ08PhDDykbWIdHRhhT7TFJTlridotmZ/fckkRG+uxSQ9KSRGWJxx9kZsxmyG60tZPs3HzqQk1DIzHR0ZosWXR0NFs3bWTrpo1cq6vnxTfeYPutm7zayHUL6dDIiLJk0N6pvRU01J9RgZsXYlPhIsbwyAhnL17i3OVL3FI5u8YaHxfHwNAQw6OjyLLMhatXud5yg6mpKRzOaHlJYqKy3oxzT8DRU6eobWxElmVOnD3LR58fYXpmxrRtNS5d+5KTZ8+ZXpdsEl+cOsXp89XMzMzgkGVa2to4dPQoV2tqWe281W7bpk3UX79O041WcE4Yb314kLc+/BCAipJSRkZHuVJTA87NV8er5u7bt0kS6ampXK2tBecdBp8c+UIT7XtrwwqWJCYwMjJimH2wMv7+wpvusxcv8X+e/TXtXV0ATE9PMz4+QYpqMo+OjkZy3r66rLCQl998i0mDpZDc7CyyMjM4fb6a9ZXG51XExcXR3tWFw+FgcmqKQ18cZWp6islJa0tJMdHRRNlstHa0g3NT5AeHPyU+Pl7ZI7CqvJyahgYGnZ/XC1ev0trRoejIzshgWWEhnx0/oXxem1tb+dkvfuG2l8ETcjIzuaWykncOHuTcpUuMjo3T09fHoaNHqbpwgbt3ze7w7+rt5f/7x3/kam2dkgcZGhkmKiqKpCVLvNqoMC+P5KQkTp2b3bQ5PjHBZ8dPaDIGwfiMCixOiAzBIoN6U2FsTAyZ6ens2b6Dbc6IZPOG9Vz68kv+4V9/SXxcHEUF+Tz6wH5++eJL/Py55/n2o1/ntvW38NYHH3K6upo//9MfcMf2bcw4HLz85luzKdP4eB65dx+pyckMj4x4YQRXa2vp6ulh8wb3FCfA5vXrkR0yR06e5J2PZrlHR0VRUlzMow8+yMrlZeC8G+HRBx/gjQMHiLLZ6B8cJCMtjW987asA5OVks2HNal5+620y0tJwOBxsWruWQ0ePKm3t2b6dNw4c4OfP/5bJqSm2bNhATUMDDtlhqQ0rWFdZyblLl/mvf/czHn3gAW1fLYy/v/Cm++sP7Cc5KYmfP/9b0lJSGBweIj0lla8/sN9Q36MPPsA//+Y5XnvvfZ54+CG36+tXr+bw0WNUVpQb1r9zx3ZefONNfvaLf8XhcLB14wbu2rmTNw58wO/fede0XRdsNht7d+/mw08/5dK1L5memeHBvXcTGxvDiaqzREdFsf222+js7uaf/u03jI+PU1FWxvrVq6mpr1f0PPbQQ7x/6BP+7l9+TnxcHMMjI+zasoUs57q+VTx87z7eOfgR7378MW8c+ACcWax7bt/Nlo2ze2qy0tOprKjgtffeIzY21rlnQOZr999HbEyMJfs//tCDvPXhQf7q736G3W7nkXv3UdPQoDiuwfiMCixOSLJRmCKwqCED7R2dpKWmEB8XZyjTNzDA6NiYJs06PT1NZ08POZmZlm/j8xWDw8MMDA6Rl5Pt8Z7q9q4uUpOTDfkPDg0xMjZGXnY2Dc3N/Nsrv+M/fv8ZEp1rxpNTU3T19JCfk+NxL4CnNrxhfGKC9s5OigsK3NaArYy/v7Cie3p6mo7ubhITEjSnHIYCrrZys7L8/syMT0zQPzBo+RTA5199DYfD4eZcTU5N0d3bS15OTkB7YmRZpq2zE3t8vJLWN5Lp6u3FMeMgJytT8znz1f432tv5xW9f4LtPPKGcneBCIJ9RgcUH4RAILGoYOQQCNw+u1NTw3ieHePKRh8nOyOBqbR1vfvgBd2zbxo7bbptven7hX194kYy0NB7Yezf9g4N8/PnntLS28R/++I/dNkYKCPiCiP/0CG8lNBD3IgssBqxYvpyWtnZ++eJLzDj3CGxcu4Ztt1p7kFQk4v677uSN9w/wN3//DwAk2u089tCDwhkQCBgRlyHwTiai6C4geHYBhIMgICAgsLgRES6l+xQve7gmfAKfIeE2aLq78TVXhXMgICAgsPgwrxkCM0dA1gmI+T+4kHQvJPcrBu8EBAQEBG5mzFuGQNa9UzsBsvEVg3oCVqGe3JXT29zSArJTTlLJCQgICAgsBsxLhkC9IGDkCMj6TIHqCFnhEPgH18Suvr1JKVO7AZqsgaSRExAQEBC4eRF2h8DNGdA5Asprefa1kTzCMbAM9fKAfpKXVA6CZOAYCKdAQEBAYPEgrA6BmTPgcgRkWe0UyM73OkdB9T/hFHiGMpVL6mzA7MQ/6wyguAESEpKkvS6cAgEBAYHFg7A5BN6dARmH673TMXCoMgWormGYIRDuwSyMNwbOTvaqbIAkYdM4As73kiScAgEBAYFFiLBsKjRzBhzOKw551i1wyLNlLufg5bYaDnQ3cWagk9aJEaad58mbzv2yPDvzmfk4bsXObXOy7HwQuYcOSE79RoJmetX6LetV6Q9yP6MkiYL4JWxKy+He3GU8XrQSG7LiDCCBJM8+5EdGxoaEJIMsuW5MlBSGVjA0NMTIyAjj4+PMzMzM7QORZSRJcnu4j5lvGohcuNqxIme1vhlvgNjYWBISEkhJSSEzM9NQfzDhsuHExATT09MaTvNlr0j7/PjKJyYmhsTExLDYUNhvYdsv3Ah5hsCTMzCXCZBxyHMOwUttNfy07jRN40N6JSqtoZjIXeV+OhZeJ3I1Hyt61Xys6DVRZFKv2J7Ef1q1lSeKV2JDwibNOgM2Z35AknC+9i1TMDQ0RG9vL1O6p+AtlC/8QuETGxtLQUFBSH6UzGzoiY8VOavjY0VfOPmE6vMTKhsK+/ku5w+fUH4H5wMhdQj0zoB6j4BDnnMEZlz/kPkvNSf456aLKg26idbjxOhh4nebMC1E8IZ6rfDxotcjnwD6qVZnxseg2jOlt/DXa3cS5cwiREmS4hjYJPc9Bp6cgu7ubgYGBpw0g/vF9lQ/mO0stB+07Oxsli5datimP1Db0IyPEUIxPsGUi2Q+OTk5FBcXG173FcJ+4ecTTPvNJyLipEIX/qLmBP/cdEE3IaqN4Mxfe5zAZeMJXNZPtPKcvGbCNNMvq+p50quSV14aCMh6UZN+ms776gMbrDgUqmu6/v1z3Tkk4G/W7jIeUotw/RD5M+HKshyWL7ZRO/PpkJjxscLbhY6ODoCgOAXd3d309/d75eNLeST8YEeCnKf67e3tyLIcsA2F/eaHT7DsN9+wWZAJGOr5Tnb9uOmyA6+01/JPTRfVuem5e+MUuG6Sl1xb5Of+asRcOlR/0ZWZ6XW9V79Wi6lv1lf0qvR75aPX642PATcjPpb6qeYjacbxn+rO80rzVcUern0dsmpTJ7KJb+JMUaqjEm1zkvb8A917b+VW5fxtx6zNUPCxUt+f8eno6KC7u9srV09Q2zAc9vK3nfn+/PjL2xufQG0o7Lew7RcJCINDICv/d90l4IDZ/QLOPQMzyPy07vRc9C2j/aeJ5p0Rrqx6rW3KtTahyhao9ar0g1aHrJKXVW165CPP1dNH36Z8VHox4KPXq+mn7Na85X6q+yvr9CPz08vHmVH2dLjs41Klvs3TXWlvb69bFOt6b1buq1yg9W92Pi0tLW7cfIHLhi7dweDtqb6n16EYH6v1rfIOxfgEYkNhv4Vtv0hAyBwCt/lN7RS4Jh1mo9HftdXSND6sVWAUMWuiY6NI3EjeUySu1yWZ6zXlI2mLLPMxqaOWM8046F9b7Ke6kkHGoWlsiN83XZvNEDjtM/efEwb+ztDQENPT0+6tBCECCSaCHRFFAh81Jicn/Y5QXDYMJh+rYxWqDI2/CBcfI5nJyUm6urosMp2DsF/4+QTTfpGCEO8hmDttUH0c8Wxg6rqzQObD7ib3fLQSiZuspRtF4ma78TRRvU6Hfs+AGwe9IjM+ZnrN+BjoVes3ElbEVPKGY+ZLP7U6Pmhv4GtFFTiQsQEyErLkknS1i+YGxJGREUPP2Z2G7PF9oHLhaMcsapkvPvr3fX19fu14VttQDtOeikDr36x8+vv7ycrKMpQxg7Bf5PDxx36RgrDsIXBhdsBk5dAh13JB1WCXSWTrir5dEbOXCF7SraVrIm2tyjm9qPQaRPCaeno+ZhG8Wq+BIjO9RnskDDMKnvrpjY9er6RRUdXfObdsoHLpzL4EABMTE7rmInONz18+kbYG6kluZGTEa/tGUNtQr9sbH6ty4VqzXuh8/LGhsF/k8PH3OxgJCP1dBprlAtW6NHMZghvjwwZRscVzBrQvNNWN18912QWvelWRuKFeddTtqWGjCD6AuwlMMxmybvx8u2vixuiQckuoLMk4nIcTSdKclCo5AKDc62zkSVuJVIzkfInEgx1BhCvCCkU7eufMKqampizbIVz2Wqx8/LGhsF/k8PH3OxgJCEmGQHb7K2vfOw8hck1FM8g+7LLXiZlFylZ22ZuspWv1qgo0fMz0opM1yTgY9dNbBsQtM2DWT/2YWe/njOqhUg557sNuaktN9/3fVW/2ej4iiHDxsTo+vrbjL/yxlyc5M93BHh9/7GWF93x9nv2FsN/88Qnm93A+EfZzCOS5JLSSIXCLjI0iZrUXZhQxaxvxkB7wspYuedBvFpUrYlYieL1eH482lvV8DOoaZQZ86Kc6QyAjafYOGNIMYkTs8sStyHlqZ7Hz8QehzIgEa3ystBPsjFE4+HgaH6sQ9ps/PsGwXyQg5HsI1FkBVLvVZeWfs0Q93xhGzAaRreTjngG3NXqDCF7z2iBDYBbBY8QHLR+DiFzLB61+Q73o+ilpZdU6DPtpdM6DtkBWbQZF+au6ZUff/RB66FbasSon+PjGc74yNL7y8VduofCxCmG/yOSzkBDWDIE67SyrHmikWaP3VFsT0eoUGyQKNGv0VohZ2jOgruchQ6EUG6QSPPGRTU5aNOTLnGsle9szoOaj06t765CZzQ7Is1kCnPcUmFOWlb9WIldfI9xQRtw3Ix9/4GsEGK413kD0BYNPMHn72o4vEPZb2PaLFIQwQyC7v9Kd3TMnYRCBm0XiZhkBb2vp6qyDR706Plb3DLjxcU9AuPGRzPppctIieO+nIqPLQljpp4rPXGZH69fovgo62gs/4rYaYYWLj5V2PNXxB/MZsUUan2Dy9pWPvxD2Cw1vX/ksRIQtQ6AP7tXZAnHOgF5Ml6kIqJ9G5w0bZAhU1/QbBxXaJn7RHI3QevLhaCfS1jB94R0oFqK9FhMfb5hvfpE2XpHGZyEgtHsIDOdJ1T4C1zn56ujdUwTvKSI3CIjFOQM6PqYZAq0OWfWh1ttMgcFn3qqH7rrmTW6hrhlGGh+rmG97WW1nMfDxB4t5vCKNz0LFPNxloP07+8bEo9KnFdRvDQJz5Zo3D80o4yCb6VVH3Z4aNorgI++cAdMMiJItkPUlnrd2WPCQjdboQrGGGQifQPRFQjuBQm+bcNjLajuLlY8vEPaLPD4LEWE9qdAjPGUGLO8ZUOlSZx0UZUZ6VQWSSqGpXnSyJhkHtRKrGZCw7BlQ8zEZ9wDhaY0uEiKIcPHxpCscEY0vCAdvf8fHH3tZ4R1OPsH8PFvRbyYj7BeZ9osUhD1DMAvZPQ2t9q6MImZ9ddP0gDhnwKd+msT/svJ/V13vsBIRywv0vv6FxMcfBNq/YI2PlXaCnTEKBx9/xscXCPstbPtFCiInQ2AU2Uo+7hlwW6M3iOA1rw0yBGYRPEZ80PLxFJFLqtce9aLrp6SVVesw7Kf3cwb0ewaCBX88dE9yntoJVcSwUPkEOzIJZYbGrDzYcgudTyBYjOMVaXwWIuYpQzAHWf1Kdi9V3hokCjRr9JYa0UX4pnpd4h4yFEqxQSrBEx95/s8Z0DTixsf7ngH3LvkeCXurH8x2FgMfT5GOVczHGm8g+oLBJ5i8Q9WOVQj7BcY7VO0sJMy7Q6CBy8mSdd6W83Cc2b/qGUsX5Srzms4gbnr1UbfJpj9FrxEftV4TPmYOglqvpNZvsZ+uKF/vsHjrp2SRj49weceuL4K3KNbbF8ZMzt929NGAvnw++VhpxyrvUEWZ8zU+3vQFi0+weAeLT7Ag7Lew7TcfiAyHQFa/MIuYDYxmFDHL+np6ReKcAUP9RnwsYiFFDL5ETuHg4wtvX+v7Ak/6fS2fL7mbjY8vEPaLPD4LEZGxh0By/RPnDITjnAFD/W79DAyLcc0w0vj4gnDxsdKO4OM7xHhFHp+FiAjJEBhE4AaBuXLNmydmlHGQzfSqo+45gb9YuZW0mDhDvZ92tzA0PcUDuSUA/NWV4/RNj4MMxQlJ/Gj5JgBebrnG8d42kOHOrGIezC/hfH83v75+0UMmQ0XUKDOglpN18p4yIB72DAQLoV7DtFpflmW6u7upq6szlduyZQtVVVVMTU2RnZ3NsmXLlGs1NTX09vZit9tZu3YtALW1tdTV1REVFUVJSQmlpaVhXZu0IhcIQmEvo/ExasdM7uzZs4bPlpdlmYKCAsbHx+np6dHYCaCzs5PGxkZkWWbjxo1ER0czNDTEhQsX6OvrIysri3Xr1hEXF+cTn/kaHyuIRPt1dXW5fQfV7axbt47q6moAli9fTnp6uiLGsl58AAAgAElEQVRz9uxZJicnNd9NVzvnz59nYmKClStXkpSUdFPYL1IQGQ6BPio13TPgui7NletT8Gp1AewZ2JSaQ25cAtGSjY2p2QxOT3J1qBeA62NDxNui+OHyjQBcGOzmV9cvgQSPFa5Qyi8N9nBtqI+fb7yb/bml2KOiefVGDb++fmmOR0j2DLj+qhwEk35qx0F2t4WPkCyu0VuR83eNT5IkRkdHaW1tBWBgYIDR0VEyMjKIjY1V5KqrqxkbGyMtLY2SkhKl/OjRo4yNjZGamsratWs5ffo0Z86cITExkZmZGerq6ti+fTtr1qyxxGe+x8cqgs3H1zVnfTudnZ2MjIzgcDjo6OggLi6O9PR0ZFkmKSmJ5uZm6uvrAaioqCAubtaBP3/+vDIRrVu3jrGxMX7/+98zPT1NSkoKLS0t1NXV8eijjxIVFWWZT7jHx1dEmv3MvoMxMTEAlJeXU1VVBcDExAS7du0CYGhoiBMnTgBQWVmpOASSJFFbW8vx48cBKCwsJCkp6aaxXyQgQhwCgwyBaXogPOcMPHz8TQCK7Ulc3/fHnB/oYvdnrygV/rxiMwBNo0M8lFfGrxovAnB/TgkdE6PkxCUgyzLLEpNZnpjKvUde49PbH9M+WNisn0aZAX/76cueAZk558QHGHnI3iJns9dG7z3JmbVTXFxMcXExAIcPH+by5cvs3r2b3NxcjWxSUhJ9fX0MDg6SlJREZ2cnY2NjJCQkKF/snp4eysrKuOuuu5icnOQ3v/kN9fX1rF692jKf+RgfX2BUNxT28ianjrDuueceAMbGxnj22WfJysriwQcfVGRbWlpISEhgfHyc2tpaVq9ejSzLNDU1kZCQwOjoKAAdHR2kp6ezdetWsrOzOXHiBOfPn6erq4ucnBzLfMIxPkafCyuIRPt5+w729fWB8ztYX1+vOAQ1NTXY7XbGx8c17YyNjfHFF1+Qk5NDR0eHqW0Wov0iBZGxh8DqngG3NXpJKyDpRdVKAjhnQE8TSSk93tfGXVnF2KNjyIqzsyuzgFN97U51EnXD/Ww5/CKNYwPM1VT3U5+9UJeF6JwBT3sj/MgQ6NfUPHnOgazRBbsdQMka1NTUAFBXV0dCQoImFblv3z7uvvtuAAYHB3E4HIrD4A8ff3gHcw3Um35f9flir0Dk9DxlWcbhcFBQUEBDQwMAzc3NTE1NaRy/5cuX8/DDD5OTk4PsXE6Kjo4mPT09qLzNEOjn2QoWiv3UcH2/8vLyGBsbo6OjA4DGxkby8vLcJvMjR46QmppKeXl5SHibIRz2ixREhkMgO6Nm2fVPFT3LqMp1/5R79FHJodWFUT1Vu2b6NWv0BvJOfNjRyJLoGB7OLeUr+eXYkHir1bVuJjM4NcnkzLT7XQwaXfrnQnvqp2zM22389Lqs6NX2zbr5ZMN/3q5bkbNS35ucGV/X68LCQhoaGpBlmcbGRkpLSw059ff38/777xMVFcWmTZv85uPP+PhyzR+E215WbeqJG4DD4WDp0qW0trYyMTFBfX09GRkZJCcnu8mfPHmSX/ziF3R0dLB161ZiYmJCZq9Ax+dmtZ+RDdPT00lISKCuro6RkRE6OzvdvoMNDQ1cv36dPXv2GPJc6PaLFESGQ+CKTHUBv2FGwCzCN8sIuO0fUNfzsNvfsI571F0z0s+Xw308mFfGA7mlHOtto29qYk7eKOr21E+lnucMhWE/JUzGR/8MBp0O04yMb5ivDICn11b4lJWV0dXVxY0bNxgYGND8GLnqd3V18dZbbxEVFcW+fftITU0NmLf+mje5+YpIQmGvYEZsZWVlyLLM9evXaWpqoqSkxJDTihUr2LFjB3a7nePHj9Pb2+sTb6t8zMoDzSD5i0i3H8CyZcu4fv06DQ0NREdHK0sNAJOTk3z22Wds3rxZs2fAV96+8DEqny/7hRORsYdAH4kr5ZFyzoCBflXRu+31PFW0iqToWP7qyjHVdV1Gwky/x36G6pwB114Eb89l8A4zj9hqeTDlPHnoZteKi4uJioriyJEj2O12cnNzNdFAf38/7777LhkZGezZs4fExMSQ8A6kvut9ID9G82EvX+TMyuPj48nJyaGqqorR0VHKysq4du2aItvZ2Ul7ezvl5eVUVlaSkJDAwYMHaW5uVjYpBpNPqPrtDQvVfgClpaVcvnyZS5cuKd9HF1paWhgfH+fYsWMcO3ZMKX/nnXfYsWMHq1atCiqf+bJfJCAyHALXb5h+ftavg6snM8N6Onlvu+wVvTpFZnc3GGQIAF69UcOPlm9CBp5vvsK2tHxFPjsuke0Z+aTExAKQHZfAI/nLaRkb4nRfhwkf9UBI7hv93O4qUDtCXu4qMOonxn6RVbgmIf0Xwazc3/rBkJMMNv1ER0dTVFREY2Mjq1at0nj8DoeDDz/8kMnJSbKysrhy5QqyLBMVFcXGjRuDyjtY4+MvAuXjuuat31blrPZHkiRKS0s5evQoqampbtmb5uZmzpw5Q2dnJxUVFVy9ehWArKwsv/iEY3z8QaTaz0r/CgsLiYuLo6+vT/leuZCfn8/+/fuV99evX+fixYts3bqVpUuXBp3PfNkvEhAZDoE+QvU2wBrHQBX56h0KvXKzjIBG1EO4bMLri+5WWseHuTE2zI3RYUhzyclsSM3i9W0PKbK7MgvYlVnAKy3XePzY28YTuKtthY/OQTDKgPhyzoBRP2UP8l7gzXMOtscu+3j/v/q60VogQElJCY2Njcrth67yqakp+vv7wXmbogvR0dFs2LAhKP0OVUTjCzxlKDy1q7eDURbGqpyndjzVkWWZsrIyjh496mY/WZZZv349g4OD1NTUUF9fjyRJrFmzRtm45i+fUI6Pr1gI9vPGbdmyZdTW1rJ06VKNXFxcHPn5+cp71/cxIyODhISEgPh4kwuX/SIFkhyCXji/Yso+NQcyDllmRpaZlh1Myw6mZAeTDgeTsoPlH//aXJHkYSI3Y244YRrpNVHkbUTMhsxQr1lq36iej/00WsLwlY9Bc7WPPEOsZCPWZiNGshHt/BclSdgkCZvrXgkJQOLqlSu64bn5HyYUyXx27txpeN0Trl69GlHjY0Wfr/UnJibo6+sjPT1d2VAYCfYyasdXGy4G+0Xq982oHX++g5GAyMgQKDCY4NSTmS8Trv61fsI1k3XTa2XCVevV8zGoK8/zOQNufffST4swiwRC+YV3eexW5BYLH38QLD5WdIdzwlAjNjZWufXQdc0qn3B/fnzFYrBfIHwi3X6Rgsi4y0CBai1duUNAcrs891q9lh7AOQPqptz0otUrGfCR9HcTSCq9klZWrcOwn2E6Z0BTzaCffiDSdvUuJD7+7OIO125mX/gEU+5m5GOlfrDtupDHK9L4WKkfru9lKBAZGQJvHpVRpCy7B87Gek1S8EqxQSrBEx9Zv0bvLcUvz2UOjDIDbvUMOmbYjOuar3sG9Hw8jJ9F3Iwpv3DzMYosAuXjC8w4+cvHahuB1A+2XcPVjq/jYwXCfuFrJxT2ixRERoZAmsdzBjxFyupI3Eyvp4yDkV5FRpeFsNJPS3z0ej08nVEzfgZ8/EQoPW4rkUE4+VhpxyrvYI+PLwg2n0iLIH1pJxA+VuoHOj5mbUQKP2G/hYvIyxDoA3at4FwEr49sNa+9nzPwjaKV3J9TQoF9CTXDfRzrbeNX1y8q+u/PLeFEbxs9k+PaNiRd5sGNg4GXaJQZUGc9VMXPlN3CiqR0Xr9Rw2ddzQbjYKLfjY+ncwZkd1UKt8C93EhYM1SjqqoKSZJYv369m1xnZydvvPEGt9xyC5s3b+bFF18kKiqKxx57LOi8A6nveu8tgvE3SrGiI1h2dT1Nct26dcTHx4Pq6XaVlZUsWbIEnHd1TExMcOutt5q288knn1BbW8s3v/lN7HY7IyMjjI+Pk5GRwdDQEC+99BIVFRXs3r3bZ97B7revcr4gnPYbGxujurqa9PR0li9fDs7vUUNDAykpKaxYsQKczwCpq6ujsLCQvLw8w3YGBwd56aWXWLFihWKjtrY2MjMziYmJ4dChQ9TW1vLUU09p7iiwwjvY/fZVbiEi8jIEhhGzSWTrKWJW9Lor+t+33Mnzt95HoT2Ja8N9bE7L45cb7+E/r9gKQHlSGu9u/wqrkzPd+bhemGUevPIxjuDXp2Vzeu+3+Nn6PfywYhMb03KM9XrLEBjtRUDbDU3mIYiZATOEImLwxUO/cOECFy9etFQ/lLzNEK5IySoCzXR4kxsYGODMmTO0trYiSRLj4+McP36cqqoq5ZkEDoeD48eP09zc7LGdjRs3sn//fuLj45EkiVOnTnH69GkA7HY7999/P+vWrQuLvYI1PoEi1Pzi4uI4f/48Z86cUcqvXLlCVVUVR48eVeTq6uqoqqpienratJ3ExET279/PLbfcguR8Suk777zDwMDss1/Wr1/Pfffdh91u98r7ZrHffCLyMgToomevewZknR6DjIBGVOapohU0jQ5x++cvAxI24MCOrxItSWxPz+O/rJx1DP6kZB32qGg+aG/k8cIV3Je7jAJ7EgfaG/hZ7RkcznaeLFzJHy5bTf/UBD/78gyPF63gSPcNXm35EpvNxn9euYVdmYUMTE3wT3Xn+KSzSRXNz3bs7uyl1Az18WzDRf73xrtmvU7NuLii+iCcM2BYTXV3g48Itsce6jXDpqYmLl++jN1u1zztzijKGhgYoLq6mpGREXJycpQfrmDyCVb9QCMVK3awutfBUyansLCQkydP0t7eTmlpqfKIXLvdTltbG2vXrqWzs1N5cNHMzAxXr15V5FauXElBQQEAvb29dHd3k5WVxdWrV2lqaiIuLo6qqioqKytpbW0lKyuL1NRU6urq6Ovro6ysjPPnzzM1NcWaNWuUz8DU1BRnzpxhYGCApUuXEh8fT3d3Nxs3bjT9PIZifIKR5QklP0mSyMvLo6WlhcnJSaKjo+no6MButzM2NkZfXx9paWl0dHQost3d3UpmKCsri3Xr1hEbG8v09DQ3btwgKyuL6elpzpw5A8Dly5epqKhgdHSUnp4esrOzmZ6e5uLFi+Tn59PT06PYdt26dcrJhk1NTVy7do24uDjWrFlDfX09ubm5FBQURLz9IgGRkSEAk8yApC3QrHkbqdCvpRtnHHomx8mLT+T/WbmNR/LKKEpI5p4vXuO/Xj0OSGTG2jVqv1uyhpe27CcrLoGBqQn+57rb+R9rbwfgruyl/HbLfjal5TAjy/zbbffxw/JN7MosBEni2Vvv5T+t3MLn3S0kREXz/q6vcUtqlls/f9VwgSePv8OEY9rZFV/2DBhkBowyK4aZDKMMiG8Itsfu6XUgHrskSXR1dfHBBx/Q3d2NLMvK89iNZAcHB3njjTeUCeLSpUscOXIkqHzCFdFYgb8ZCV/tlZ2dTUxMDO3ts08FbW1txW63U1RURFtbG4ByrbCwkC+++ILPP/+chIQEhoeHeffddxXnoLGxkXPnzjE9PY0sy0xMTCjtTE5Ocu7cOa5fvw7OyeLcuXN88cUXyLJMc3MzBw4cYHR0FEmSlEf0SpJEbW0tJ06coLq6WulDuMbHX4STn2uCbW9vZ2pqit7eXuUIYZdtOjs7yc3NZWJigtdee40bN26QkpLChQsXOHDgADjPhjh37hxNTU0Abo88vn79OufOnWNqaoqpqSnOnz/P8ePHaWlpYWxsjLNnz3Ly5Enlu/3RRx/R1dWl2LO6ulr5LEW6/SIBEeQQqNa6XdkAt53xqqjZIHh2e9qhUg/NvydOvsuN8WH+ctU2Xt/6EI37/oiqPd9gb1YxR3tucKx39gP9L/XVfNDRyJnedr5y7C2+c/oAXz/+Nt0TY9yXWwIyfGfpaiTg35/9hKdOvMv/qTsHgE2SWGpP4ttLK3mnrZ6/vnyMrx97Cxl4pnS9Wz97J8fdsx2yQfbEWz/V/UU3jq7x0+g1GncfLeflKWGe5DzV9/Ta6JpZO+oy19HDe/fu5fbbb2fTpk1ufFyvq6urmZqaYvfu3axcuZJVq1ZRW1urTDr+8gnX+PgCq3y8yelljOQkSSI/P5+uri4cDgcdHR3k5eWRn5/P2NgY/f39dHR0YLPZyM3NZeXKlTzwwANs27aN22+fdcRdT6dU616zZg0AKSkpHk+R3LBhA3fccQerV69mZmaGzs5ORkZGaG5uJjMzk71797J//37lx35mZibo9rKizxeE0344HTWc6/1tbW3Iskx5eTlJSUm0tbXR09PD1NQU+fn5REVFcf/997N37162b99OUVER7e3tGucN58mDrsdWr1q1SjkzAp394uLiuO+++9i/fz82m4329nZkWVaeX7Fz50527typfB4cDkfE2y9SEBlLBi5IutduZ/Y73+oHXRFzvvB0Zj9wpr+TtR//hjuziilLTOHbxZVsSM3m+dvuI+e9f3HTmxGXwI/LN/H8bfeRGB0DwOjMNEiQZ5990M3p/tnnElwY6FKqr0zOAODrhRXIj/6Zqjxd1x+jaF2a++vWX0/9dC4NaFYUJF09lZxm/AgKzFLq+nJvUa+vclY4jYyMgHPSkCSJ9PR0NxkXBgcHAXjllVc05QMDA2RnZ/vER51yDOX4+BuxGKXEzdoJhlxBQQHXr1+nvb2d7u5uysvLlY1nbW1tipNgs9no6+vj4sWL9PT04HA4wJnetxrh6cclJSUFnI/ddelyfS7S0tIUudTUVIaHhxV9wbaXN32+INz2y8rKIj4+no6O2d+9+Ph40tLSyMnJob29XZPhkSSJK1eu0NraytjYmKJvamrKY3/M3iclJQEQExPDkiVLmJ6ezaqOjo6Cyq4uWy4E+0UKIsMhkNUvJG2Uq5nY9PVMBDTF2lRCaWIqD+eWcW24l7daawH4Wc0Zjtz+BDsy8smIidPql+G/r97JxrRsKj/8NTXDfXQ+8AOF46jzw1hsT6JmsJfChCSlrSHnY5Cfu36Zb598z7if+reyqm2Fg5eB0PTTlS3wds6AbM7HT+i/CHIEnTPg8t5jYmYduuHhYeLi4gyjfddfl+xTTz2F3W43jCas8jGKHkIxPoFGmFb5mOmwUi7LshJhVldX43A4yM3NJTk5mfj4eOrr6xkdHWX16tVMT0/z6aefkpKSwh/90R8xMDDAK6+8Yjqe6r5YtZEsy0RHz/4UuiYV9Wu1vnCNj6+YD355eXm0trYiyzLZ2dnIskxOTg61tbU0NjYSExNDVlYWZ86coa6ujrvuuouysjI++ugj6uvrDfV6itJdMOuj2oaJiYmKk7cQ7BcpiIwlA2XNW7/WrVoMN3LeJA+7/TV65xqSkPjp6h389rb7+V7JWh4tXMFfV+5gc1ouFwe76ZkcZ8aVFrMnUZyYRHpsPNMOB6MzU/xl5XaWRMeQFB1LrC2KM84nFv63NTt5ongVf1K6Tmnr/EAXbeMj3JOzjJ2ZBTxSuJwTd3+DrxZWuPWzMjmTRwrLqUzJBKAiKZ1HCsopXZJqsGdAN1aSbuj0d2Mor3UDqR53zTj6h/lao7O6Ri9JkvKEu6tXrzIyMqJsYjLi4HqgSnV1NWNjYxw7dozPPvvMNAPgDx8r/QnnGrRVPlb656mdjIwM7HY7jY2NREdHk5mZiSRJ5Obm0tLSAs7ocmpqCofDoTx74OTJk0RFRbmlm9X8x8bGmJiYsDw2kiSRkpJCXFwc7e3tXLhwgWvXrikP0dHr99bvYIyPPwgnP0mSKCgoYGJigtbWVnJzc5WlIJyPLM7NzSUqKkrJCsTExNDR0aHYV79fAMBmm52SRkZGDG3siVNm5uxv56lTp2hubuaK7hkrkW6/SEBkOARKZKyKij3uGVBHz2oFrnq6IlX0XDfSz1ePv03b+Ag/37CXVzbv5/9euYVrw708XXUQgEOdTUw4Zvjt5vv5s/Jb+X+vnSRKstF8/59QlpjK/3Xhc9Ji4zl51zf4h9oqLgx0syU9j5+u2ck7rfVOajIj01P8wcn3iLXZ+HzPk/xm8/181tXCay1fajsuy3xraSWv73iEH1XMrml/f/l6Xt/5CPfnleK+Z4C5fpruGdCPn76ebnxkzYD5Zj4f1sS9yellPOnzp51Vq1aRkZHB5cuXeeGFF5Qd5q5UtLp+ZWUl5eXlXLx4kRdeeIGenh7Wrl2rSQ3qswr+9lutI9jjYxWB8PbHXvn5+Up06Sp3rRvHxsYqaek1a9bQ2dnJs88+S1FREaWlpTQ1NXH8+HGNTtck1d3dzXPPPcfMzIzlfkuSxJYtW5iZmeH8+fN0dHQok5uRvUM9Pv4g3PZzZXlkWSY3NxdZljUPjnLZd926dSQkJHDgwAGOHj3KvffeS1RUFK+//rqS7ne149pzcPDgQc3TRb2NiyzLrFy5koyMDDo6Ojh58iTFxcWwgOwXCYiMpx0efNYkYy3PRqzeKMo6eaNUvAGWJ6ZQkpDKteEemkaH3JpV1yuwLyElJpbLg70aPrG2KNYkZ9I9OUbT6CDfXbaGX966jz87/yl/++UpQCIxOppNaTmc6+9kcGrScz+N9gwE2E9rSw5zqP3q93162uHlS5eczQSWUgu1nAsOh4Pu7m4SExNJSEjwWn90dJTJyUll7TnYfILdb/UhPFZx6dIlZWL01o5VOV95e2pncHCQ+Ph4YmNjQ8ZncnKS4eFhZQ36tddeY2pqiscee8yndoLBx7V50ioi3X4zMzMMDAyQnp4eMj6uz0lcXBzx8fE0NDRw+PBhtm3bxooVKyLafpGCyNhD4HHPgOqNpYlN1hZ4WEuvHe6ndrjffA+DqvjG6BA30MnJMvfkLOXtHV+hdrifz7tb+FpBBYNTk/yu5ZrCZ2Rqks86W3QTv0k/ZV/3DKj6qXYQjCopak30++kaWvmC6d+H+wdJD1d6Ue/xG+mz2+2ag1EizQEIhk+v/lG1Mo5m0VEgvD2149pI5nofCj4ff/wx7e3tVFRU0N/fz8DAAOvWrfPaTqj4+IJIt5/NZiMtLS2k9mtvb+fAgQOkpKSQl5dHfX09sbGxFBcXz8v4LEREiEOg3ydgshlOvbtec13W1lfKdevnynWdYqXcpVetSHWXgoHed9rquffzV/laYTnlS9J4vuky/1h7jqbRQfO7CBQ+KgfBcj91fCQj/Wq9kvv44KmfwV//8rSbV/1F9LRL14qcv7uGfW3HXz5mCDafQBEMe3nSZ6WdYPOxInf33Xfz5Zdf0t7eTmJiIrt27aK0tDQkfDzpCxSL1X55eXns37+f+vp6BgYGKC8vZ9WqVcrx2OEen4WICHEIDCJb/Wt9ZGsmq63gecnBUK8+0jaoK2tT+x+0N/BBe4Nx80YFGpUm+s36afpsAn0/5bm/RnwMdZjwsQh/MgFmEYORnKd2BJ/Af4ys8PYlcjIrD6acVT5W7BUdHU1lZSWVlZWmclbtZaV/3vj4isVuP4CsrCxl4/BCs18kIDI2FarvKjDyMpUA2MvTBZVig4hcUr32qFfNxyC7oNYheTgpEDM+gT6bwICPUT/1dxO48ZHc+Uh6vb7BaLduMOWstjsffPzZpewPHyvt+AtfeAe6CzuY7YSTj5X6weDjDyJxvCKNj5X682W/SEBkZAhMI3i30NZZri42SCV48tBk/Rq9iX7NG/VeBG+b/mTjjIBbM65r83DOgCc+fsCbh2zFM/dFX6DthIKPUWQRCj5m7QQKK9mG+YggidDPjxV9wapvBcJ+C9t+kYIIyRCYRKZukbIqolUX65W4ImV1JG6m11PGwUivImMSiRtmBAwyA6Z89HpDcM6AZKA3iAh2hCsyAJ4RjExBpEeQvrQTCB8r9cM1Pr5A2G9h2y9SEBkZAvSBvjoS9xbBuwpUEb/GU5MNxFTybqIGXp5RZkAdfXvkYyESN+TjWvv3wFE/Zpp6Hjia9TNALMQ1TF94B6MdbxFMMMbHHwSjf4HWD1WEtlD5+AJhv8jjsxARORkCNdTr694ieLeIXJUhUJdpXnrIPJhF8KZ6ve1hCHTPgHs3NJkHT/3U8DHpZxAd2khcM4w0PlbqR0IEEo7xsdrOYubjLxbreEUan4WGyMkQoIuUDa+DW6jr71q6SRJBswfAKDPgplfW6mWhnDOg0uWxn94R6WuGwWjHily42glVpsDfTEUg9jJqx6rczcbHW7k3LLbxijQ+3soXAiIrQ+C2lq6OmN3fuq2layJmDOqFY8+Amo+FjIBbP71lQPR6DTIDHvtpwkfh5bun6ykSDqXH7s/aZKRFEPPBxxtXX/WFIkPiK59Qfn784eNJn6/1fYGw38K233wjMjIERpGtaQSvqTAXkVvWq4+0DeoaRczqLINbAK4rMIrE9frN+jkf5wwEMbLUv5dvgvv6FyofX+DS4Uvk5Csff+Ss8gm3vazoC5SPLxD2W9j2ixTMe4ZAGwCLcwbm+uQ2SroI3qif6PTq+Eh6vej0zv4N1OcNRiRvRS4YEYNVPgsxgvEF4ciIGPU7mHLB4GOlfrj4+AJhv4Vtv0hBhGQIdJ6VJuJ1C6E9R7SyOGfA6zkDHsfP/JJplQjbMxAKPlbXJgPlY9aOVd7+/iCFao3XqlykfX6s6AsXHysQ9vNdX7j4LCTMU4ZgNhqVdO81Ea26WCOnimjVkbhGTJwzYNxPNR8Pdyko78wU6NWFJsIVGYDg8LGK+Ywgw8XHSv1IiGj9gbCfb/pCyWehIjIyBOKcAWOOsl6Hup4Hjmb9dNOl4+3S6yPma40u2GudwWjHW8QQqWuYZtmKYPIJVf9udj5WIOwXuXwWEsKeITCPRy1EzFbX0t0yAxYieFO9N+E5A5Iqq2HGx9RWRurmz0MPplww+FipHy4+viAUfPR6g52hWUx8rLQxn/wibbwijc9CQWgzBJoodi4NLTkLJUlCkiFKghlZNohsxTkDbnz0GRADClo+JhkQEz5Rzk2Frg/2nM10UBW4POP5XqNbqBFEMPkE4wcpmPYyyohYlbvZ+BiVe2rHX9ws4xVpfIzKQ2G/+Rd42H8AAAdySURBVETYMgSS7sVc9CmRH79krtAtUnZFu+KcAfMMCN75KLw89RMKEpKU6d/MZnrExsY61c/PGr2v7fjLxwyRxCcuLs4rXyPExMSYXgtFhsTs9Xx8fvzh40lfoPXj4+O91tFD2M83Pp70BVrfH/tFCkKYIZiLYJVX0uySueQscA3hxpRsmkeHVHUNInIjGEXM4pwBEz5uhYYvN2TkgNrN8HQ3pPOd3W5ncnLS69q50Wuj957kvGUM5EV0zoCRXFJSkqGsN9jtdiYmJiy3Eyw5q5FcuO1lRV8w+BjBHxsK+/nGx1s7gcj5+x2MBIR1D4E6KyBJEhISNgnuzC72sEavi2zVHpvZrOVtLd0tYjaItDHjs/DPGTDU73x7Z14JNklrIze6OiQnJxuWB9tD9ydisMrnZohgJEkiMzPTqz4jJCcnh4RPMOWCwcdK/XDyMZLzx4bCfgvbfpGCkN9loMT5kuTMCsxlDSSnc7A/r5T/+eVpmscGPWcEcEa76gjc0lq6OGdAPxxGmyyKEpPZX1yOyw3Qug5zH379VyA9PZ329nYmJyedzYcuAvBFzlN9I5lw8DFrxypvT+3Ex8eTl5dnqMsb0tPTaWtrY2pqKixrwb7WD2Y74Ywgff38+GtDYb+Fbb9IwTzcZSApjoBNcv4DflK+yT1SVkfiGiXinAHjfqr5eLlLwY2PxE9Wb8UGil3UtvKG3Nxc02siA+AZweJTWlrqtS1PcP2QhSKC9MTbGxZyBGmVjwuB2FDYb2HbLxIQkgyBJnaXQHKu69ucF6OceQIZCQcSMZKNh/LLuDzYw88bL5ispauVqkJkN1ED788oM6COvt2qGETkRnzU+t34RPA5Axq9swVPV2zgoaUVxEg2oiRJ888mzXqOinOgW1XBGaGMjo7S1dVlQCf0kYU3uZt9DbOwsDDgyMTMhvNhr3C2Eyl8ArWhsN/88gnGd3C+Me/PMlDjJytu5XvL1npfS3fLDFiI4F1/PUXwphkCnQ4j/WaZCjfuar3zeM6Aqp/fq9jAT9ZtM1DkGwoLC8nKyvIqF4oIJtIihnDxkSSJoqIiVqxY4VWvFRjZMNDMi1W5QMdnofIJpg2F/cLPJ9jfwfmEJJu5PQFCFTPNLrMDDmQcsowDmRl59t+07GBa+etg2uHgnbZ6/vbL0zSPDemUuYW4+sa0cpb2DOj1elvb12UEPHfemLepXoMMiEe9Kj6W+qktKEpM5iert/JAcTnRNhvRkuufRLQqU2BzLe+4lhBUzoTR16inp4e2tjZlT8Eczflbm7QiF652gsUnPj6e0tLSkEQlRjb0Z03Vk5yn+lblIomP1fr6NedQ2FDYz3c5q/XDYb/5QkQ6BK73H7Q38mlXM2f7O2kbH2Ha4XBPeYdyovV226NbfQM+hn6DWq8JH9N+WuFjrDdKslFgX8It6TnckbeUfYVlcw5AEB0CF3p6ehgYGGB0dFSz2elm+QEJNx9JkoiLiyMpKYnMzMyw/AipbWi2adQT78VsLyO5cNtQ2C+4fObjOxhOhMwhQDUdyc71a5dTIOucghlZZoZZJ2D2vUMpn3MiZg0iO/XJqgZC1oEFCv3KirI50LmB0zW5z+0TmJ38oyUbUej2DzjvLnA5A0hYuhVRQEBAQGBhIaL2EAgICAgICAjMD8LytEOJuQMEZ6PM2WcY2NQhpgxINiRkJMCGTJTkzBJIzuyA5MwQyM6sg6StLuAetc8eMKTKFDizBOqlAFeGQJ0dUG47lCS3jIOAgICAwM2HkDoEc6vYs68k1WubJM0tjavkZ50BGw6nMxAlgcPpDDhcSwROx0AN4RDMwt0hmEvxu04gtDknea1TMLeMYFOVq5cc1C0Ix0BAQEDg5kJYMgSosgSSPPtORp6dnJibXSRZQpKc+waQsTn3Cjicf9WOgHrrg3AGtNDcXSjNTeCuid010dt0GwZtEqrNg6566r0DAgICAgI3K0K6qdAFzR0HzgLXRA/ODACzGYC5TYcoZa5NhMoudQO9Ampoo3jlr6Q+JRLFIZNUDoErgwDoNhK66xUQEBAQuHkQFocAD06BerJ3OQGuPQLqOwtQXcPQBRBOwSwkw3eS7u4A116CuT0Gc86BZJgZEM6AgICAwM2MsDkEWHIKVLcUqs4vmCtTn9rrvo9AQAtlCnd7gKP2PAFJ4xgIZ0BAQEBgMSKsDgEenAL0E79y5oC7PCIfYBnudwio9xS47zFQJIQzICAgILCoEHaHAKNJHnfHAN2kr98/IOAb1PsI3Mp0jgAIZ0BAQEBgsWFeHALcJnZjxwCDhQHhEPgHo/MJNNcMHAGjegICAgICNyfmzSHAw8ZAWScgnIDgQtK9MJv+hTMgICAgsHgwrw6BC57uGDAkN++MFxgMZnZPU79wBAQEBAQWH8J2MJEnuE9AXqYkMWMFDDGEAgICAgJqiIcbCQgICAgICERGhsATRCQrICAgICAQeogMgYCAgICAgIBwCAQEBAQEBASEQyAgICAgICAgHAIBAQEBAQEBhEMgICAgICAggHAIBAQEBAQEBAD+f9KuMu3Q/avhAAAAAElFTkSuQmCC;" parent="1" vertex="1">
          <mxGeometry x="2380" y="1795.75" width="268.6" height="76" as="geometry" />
        </mxCell>
        <mxCell id="QFzevljC2YXcx73YAN4w-90" value="&lt;font face=&quot;Verdana&quot; style=&quot;color: rgb(255, 255, 255); font-size: 23px;&quot;&gt;&amp;nbsp;Data Sink&lt;/font&gt;" style="rounded=1;whiteSpace=wrap;html=1;verticalAlign=top;fillColor=#007FFF;strokeColor=#6c8ebf;fontStyle=1;gradientColor=#7ea6e0;gradientDirection=south;labelPosition=center;verticalLabelPosition=middle;align=center;" parent="1" vertex="1">
          <mxGeometry x="2100" y="2070.75" width="280" height="165.25" as="geometry" />
        </mxCell>
        <mxCell id="QFzevljC2YXcx73YAN4w-91" value="&lt;font color=&quot;#ffffff&quot;&gt;&lt;b&gt;&amp;nbsp;Bounded Sink:&lt;/b&gt;&lt;/font&gt;&lt;div&gt;&lt;span style=&quot;background-color: transparent; color: light-dark(rgb(255, 255, 255), rgb(238, 238, 238));&quot;&gt;- Final result write at completion&lt;/span&gt;&lt;br&gt;&lt;div&gt;&lt;span style=&quot;color: light-dark(rgb(255, 255, 255), rgb(238, 238, 238)); background-color: transparent;&quot;&gt;- Higher throughput&lt;/span&gt;&lt;/div&gt;&lt;div&gt;&lt;br&gt;&lt;/div&gt;&lt;div&gt;&lt;span style=&quot;color: light-dark(rgb(255, 255, 255), rgb(238, 238, 238)); background-color: transparent;&quot;&gt;&lt;b&gt;Unbounded Sources (Streaming):&lt;/b&gt;&lt;/span&gt;&lt;/div&gt;&lt;div&gt;&lt;span style=&quot;color: light-dark(rgb(255, 255, 255), rgb(238, 238, 238)); background-color: transparent;&quot;&gt;- Continuous incremental writes&lt;/span&gt;&lt;/div&gt;&lt;div&gt;&lt;span style=&quot;background-color: transparent; color: light-dark(rgb(255, 255, 255), rgb(238, 238, 238));&quot;&gt;- Real-time updates&lt;/span&gt;&lt;/div&gt;&lt;/div&gt;" style="text;html=1;align=left;verticalAlign=top;whiteSpace=wrap;rounded=0;" parent="1" vertex="1">
          <mxGeometry x="2125" y="2106.75" width="230" height="115.25" as="geometry" />
        </mxCell>
        <mxCell id="QFzevljC2YXcx73YAN4w-98" value="&lt;div&gt;&lt;font color=&quot;#ffffff&quot;&gt;&lt;b&gt;1. Uses State Backend for state control and checkpoints&lt;/b&gt;&lt;/font&gt;&lt;/div&gt;&lt;div&gt;&lt;font color=&quot;#ffffff&quot;&gt;&lt;b&gt;2. Uses processing windows for infinite data processing&lt;/b&gt;&lt;/font&gt;&lt;/div&gt;&lt;div&gt;&lt;font color=&quot;#ffffff&quot;&gt;&lt;b&gt;3. Use watermarks to handle out of order events&lt;/b&gt;&lt;/font&gt;&lt;/div&gt;&lt;div&gt;&lt;font color=&quot;#ffffff&quot;&gt;&lt;b&gt;4. Failure recovery involves Checkpoints: will restart all the running tasks from a checkpoint in case of a failure&lt;/b&gt;&lt;/font&gt;&lt;/div&gt;" style="text;html=1;align=left;verticalAlign=top;whiteSpace=wrap;rounded=0;" parent="1" vertex="1">
          <mxGeometry x="1827" y="1689.75" width="230" height="140" as="geometry" />
        </mxCell>
        <mxCell id="QFzevljC2YXcx73YAN4w-99" value="&lt;div&gt;&lt;b style=&quot;color: rgb(255, 255, 255); background-color: transparent;&quot;&gt;1. Sequential Processing&lt;/b&gt;&lt;/div&gt;&lt;div&gt;&lt;font color=&quot;#ffffff&quot;&gt;&lt;b&gt;2. Key-based grouping-sorting&lt;/b&gt;&lt;/font&gt;&lt;/div&gt;" style="text;html=1;align=left;verticalAlign=top;whiteSpace=wrap;rounded=0;" parent="1" vertex="1">
          <mxGeometry x="2405" y="1696.75" width="230" height="60" as="geometry" />
        </mxCell>
        <mxCell id="QFzevljC2YXcx73YAN4w-100" value="&lt;font style=&quot;font-size: 34px;&quot;&gt;Deployment&lt;/font&gt;" style="swimlane;whiteSpace=wrap;html=1;startSize=100;" parent="1" vertex="1">
          <mxGeometry x="1620" y="10" width="1130" height="850" as="geometry" />
        </mxCell>
        <mxCell id="QFzevljC2YXcx73YAN4w-96" value="&lt;div&gt;&lt;font style=&quot;color: rgb(0, 127, 255); font-size: 15px;&quot;&gt;&lt;b style=&quot;&quot;&gt;Harbor&lt;/b&gt;&lt;/font&gt;&lt;/div&gt;" style="rounded=1;whiteSpace=wrap;html=1;verticalAlign=top;fillColor=#b0e3e6;strokeColor=#0e8088;strokeWidth=2;" parent="QFzevljC2YXcx73YAN4w-100" vertex="1">
          <mxGeometry x="663" y="516.75" width="450" height="130" as="geometry" />
        </mxCell>
        <mxCell id="QFzevljC2YXcx73YAN4w-40" value="&lt;div&gt;&lt;font style=&quot;color: rgb(153, 51, 255); font-size: 15px;&quot;&gt;&lt;b style=&quot;&quot;&gt;Terraform&lt;/b&gt;&lt;/font&gt;&lt;/div&gt;&lt;div&gt;&lt;font style=&quot;color: rgb(153, 51, 255); font-size: 15px;&quot;&gt;(&lt;/font&gt;&lt;span style=&quot;background-color: transparent; font-size: 15px;&quot;&gt;&lt;font color=&quot;#9933ff&quot;&gt;infrastructure-as-code)&lt;/font&gt;&lt;/span&gt;&lt;/div&gt;" style="rounded=1;whiteSpace=wrap;html=1;verticalAlign=top;fillColor=#d0cee2;strokeColor=#56517e;strokeWidth=2;" parent="QFzevljC2YXcx73YAN4w-100" vertex="1">
          <mxGeometry x="11" y="537.5" width="435.5" height="130" as="geometry" />
        </mxCell>
        <mxCell id="QFzevljC2YXcx73YAN4w-101" value="Data Team Image Registery" style="rounded=1;whiteSpace=wrap;html=1;fillColor=#1ba1e2;strokeColor=#006EAF;fontColor=#ffffff;" parent="QFzevljC2YXcx73YAN4w-100" vertex="1">
          <mxGeometry x="695" y="555.5" width="390" height="60" as="geometry" />
        </mxCell>
        <mxCell id="uQWWyqFgI2tMkjW69CQ3-20" style="edgeStyle=orthogonalEdgeStyle;rounded=0;orthogonalLoop=1;jettySize=auto;html=1;curved=1;exitX=1;exitY=0.75;exitDx=0;exitDy=0;" edge="1" parent="QFzevljC2YXcx73YAN4w-100" source="QFzevljC2YXcx73YAN4w-40" target="QFzevljC2YXcx73YAN4w-96">
          <mxGeometry relative="1" as="geometry">
            <Array as="points">
              <mxPoint x="446" y="590" />
              <mxPoint x="550" y="590" />
              <mxPoint x="550" y="582" />
            </Array>
          </mxGeometry>
        </mxCell>
        <mxCell id="uQWWyqFgI2tMkjW69CQ3-21" value="&lt;b&gt;Push&lt;/b&gt; Image to Docker&lt;div&gt;&lt;b&gt;Pull&lt;/b&gt; image from Docker&lt;/div&gt;" style="edgeLabel;html=1;align=center;verticalAlign=middle;resizable=0;points=[];" vertex="1" connectable="0" parent="uQWWyqFgI2tMkjW69CQ3-20">
          <mxGeometry x="0.588" y="-1" relative="1" as="geometry">
            <mxPoint x="-102" y="-27" as="offset" />
          </mxGeometry>
        </mxCell>
        <mxCell id="QFzevljC2YXcx73YAN4w-125" value="- Deploy with&amp;nbsp;&lt;span style=&quot;background-color: transparent;&quot;&gt;Terraform&lt;/span&gt;&lt;div&gt;&lt;span style=&quot;background-color: transparent; color: light-dark(rgb(0, 0, 0), rgb(255, 255, 255));&quot;&gt;- I&lt;/span&gt;&lt;span style=&quot;background-color: transparent;&quot;&gt;nteract with resources&lt;/span&gt;&lt;/div&gt;&lt;div&gt;&lt;span style=&quot;background-color: transparent;&quot;&gt;-&amp;nbsp;&lt;/span&gt;&lt;span style=&quot;background-color: transparent;&quot;&gt;used it to schedule, expose and scale kubernetes clusters / instances (instead of doing&amp;nbsp;&lt;/span&gt;&lt;span style=&quot;background-color: transparent;&quot;&gt;used it to schedule, expose and scale)&lt;/span&gt;&lt;/div&gt;" style="text;html=1;align=left;verticalAlign=middle;whiteSpace=wrap;rounded=0;" parent="QFzevljC2YXcx73YAN4w-100" vertex="1">
          <mxGeometry x="52" y="587.5" width="350" height="52.5" as="geometry" />
        </mxCell>
        <mxCell id="uQWWyqFgI2tMkjW69CQ3-25" value="&lt;b&gt;&lt;font style=&quot;font-size: 21px;&quot;&gt;1&lt;/font&gt;&lt;/b&gt;" style="ellipse;whiteSpace=wrap;html=1;aspect=fixed;fillColor=#d80073;strokeColor=#A50040;fontColor=#ffffff;" vertex="1" parent="QFzevljC2YXcx73YAN4w-100">
          <mxGeometry x="30" y="510" width="50" height="50" as="geometry" />
        </mxCell>
        <mxCell id="uQWWyqFgI2tMkjW69CQ3-27" value="&lt;b&gt;&lt;font style=&quot;font-size: 21px;&quot;&gt;2&lt;/font&gt;&lt;/b&gt;" style="ellipse;whiteSpace=wrap;html=1;aspect=fixed;fillColor=#d80073;strokeColor=#A50040;fontColor=#ffffff;" vertex="1" parent="QFzevljC2YXcx73YAN4w-100">
          <mxGeometry x="120" y="110" width="50" height="50" as="geometry" />
        </mxCell>
        <mxCell id="uQWWyqFgI2tMkjW69CQ3-28" value="&lt;b&gt;&lt;font style=&quot;font-size: 21px;&quot;&gt;3&lt;/font&gt;&lt;/b&gt;" style="ellipse;whiteSpace=wrap;html=1;aspect=fixed;fillColor=#d80073;strokeColor=#A50040;fontColor=#ffffff;" vertex="1" parent="QFzevljC2YXcx73YAN4w-100">
          <mxGeometry x="680" y="487.5" width="50" height="50" as="geometry" />
        </mxCell>
        <mxCell id="uQWWyqFgI2tMkjW69CQ3-29" value="&lt;b&gt;&lt;font style=&quot;font-size: 21px;&quot;&gt;4&lt;/font&gt;&lt;/b&gt;" style="ellipse;whiteSpace=wrap;html=1;aspect=fixed;fillColor=#d80073;strokeColor=#A50040;fontColor=#ffffff;" vertex="1" parent="QFzevljC2YXcx73YAN4w-100">
          <mxGeometry x="380" y="646.75" width="50" height="50" as="geometry" />
        </mxCell>
        <mxCell id="QFzevljC2YXcx73YAN4w-102" value="&lt;span style=&quot;font-size: 34px;&quot;&gt;Process Flow&lt;/span&gt;" style="swimlane;whiteSpace=wrap;html=1;startSize=100;" parent="1" vertex="1">
          <mxGeometry x="1620" y="1222" width="1280" height="1178" as="geometry" />
        </mxCell>
        <mxCell id="uQWWyqFgI2tMkjW69CQ3-31" value="&lt;div&gt;&lt;font style=&quot;color: rgb(51, 51, 51); font-size: 21px;&quot;&gt;&lt;b style=&quot;&quot;&gt;&amp;nbsp;Poor Use Cases for Flink&lt;/b&gt;&lt;/font&gt;&lt;/div&gt;" style="rounded=1;whiteSpace=wrap;html=1;verticalAlign=top;fillColor=#bac8d3;strokeColor=#23445d;strokeWidth=2;perimeterSpacing=0;" vertex="1" parent="QFzevljC2YXcx73YAN4w-102">
          <mxGeometry x="160" y="1026" width="920" height="139" as="geometry" />
        </mxCell>
        <mxCell id="uQWWyqFgI2tMkjW69CQ3-32" value="&lt;font style=&quot;font-size: 18px; color: rgb(51, 51, 51);&quot;&gt;&lt;b style=&quot;&quot;&gt;One-time data migration&lt;/b&gt;&lt;/font&gt;" style="rounded=1;whiteSpace=wrap;html=1;verticalAlign=top;fillColor=#f5f5f5;strokeColor=#666666;strokeWidth=2;fontColor=#333333;" vertex="1" parent="QFzevljC2YXcx73YAN4w-102">
          <mxGeometry x="190" y="1063.5" width="420" height="92.5" as="geometry" />
        </mxCell>
        <mxCell id="uQWWyqFgI2tMkjW69CQ3-33" value="&lt;font style=&quot;color: rgb(51, 51, 51);&quot;&gt;&lt;span style=&quot;font-size: 18px;&quot;&gt;&lt;b style=&quot;&quot;&gt;Simple file conversion&lt;/b&gt;&lt;/span&gt;&lt;/font&gt;" style="rounded=1;whiteSpace=wrap;html=1;verticalAlign=top;fillColor=#f5f5f5;strokeColor=#666666;strokeWidth=2;fontColor=#333333;" vertex="1" parent="QFzevljC2YXcx73YAN4w-102">
          <mxGeometry x="710" y="1063.5" width="340" height="92.5" as="geometry" />
        </mxCell>
        <mxCell id="uQWWyqFgI2tMkjW69CQ3-34" value="&lt;font style=&quot;color: rgb(51, 51, 51);&quot;&gt;&lt;b style=&quot;&quot;&gt;Database -&amp;gt; [Flink] -&amp;gt; Another DB&lt;/b&gt;&lt;/font&gt;&lt;div&gt;&lt;font style=&quot;color: rgb(51, 51, 51);&quot;&gt;&lt;font&gt;&lt;b style=&quot;&quot;&gt;(&lt;/b&gt;&lt;/font&gt;&lt;span style=&quot;background-color: transparent;&quot;&gt;&lt;font style=&quot;&quot;&gt;&lt;b style=&quot;&quot;&gt;verkill! Use DB tools)&lt;/b&gt;&lt;/font&gt;&lt;/span&gt;&lt;/font&gt;&lt;/div&gt;" style="text;html=1;align=center;verticalAlign=top;whiteSpace=wrap;rounded=0;fillColor=#f5f5f5;fontColor=#333333;strokeColor=none;" vertex="1" parent="QFzevljC2YXcx73YAN4w-102">
          <mxGeometry x="200" y="1106" width="390" height="20" as="geometry" />
        </mxCell>
        <mxCell id="uQWWyqFgI2tMkjW69CQ3-35" value="&lt;font style=&quot;color: rgb(51, 51, 51);&quot;&gt;&lt;b style=&quot;&quot;&gt;CSV → [Flink] → JSON&lt;/b&gt;&lt;/font&gt;&lt;div&gt;&lt;font style=&quot;color: rgb(51, 51, 51);&quot;&gt;&lt;font&gt;&lt;b&gt;(&lt;/b&gt;&lt;/font&gt;&lt;span style=&quot;background-color: transparent;&quot;&gt;&lt;font&gt;&lt;b style=&quot;&quot;&gt;Overkill! Use pandas/scripts)&lt;/b&gt;&lt;/font&gt;&lt;/span&gt;&lt;/font&gt;&lt;/div&gt;" style="text;html=1;align=center;verticalAlign=top;whiteSpace=wrap;rounded=0;" vertex="1" parent="QFzevljC2YXcx73YAN4w-102">
          <mxGeometry x="685.0000000000001" y="1106" width="390" height="58.75" as="geometry" />
        </mxCell>
        <mxCell id="QFzevljC2YXcx73YAN4w-120" style="edgeStyle=orthogonalEdgeStyle;rounded=1;orthogonalLoop=1;jettySize=auto;html=1;exitX=0.5;exitY=0;exitDx=0;exitDy=0;entryX=0.451;entryY=0.983;entryDx=0;entryDy=0;entryPerimeter=0;curved=0;" parent="1" source="QFzevljC2YXcx73YAN4w-40" edge="1" target="QFzevljC2YXcx73YAN4w-14">
          <mxGeometry relative="1" as="geometry">
            <mxPoint x="1927.739130434783" y="536.5" as="sourcePoint" />
            <mxPoint x="2157.5" y="430" as="targetPoint" />
          </mxGeometry>
        </mxCell>
        <mxCell id="QFzevljC2YXcx73YAN4w-121" value="&lt;b&gt;&lt;font style=&quot;font-size: 17px;&quot;&gt;Provisioning&lt;/font&gt;&lt;/b&gt;&lt;div&gt;Run/manage/config&lt;/div&gt;" style="edgeLabel;html=1;align=center;verticalAlign=middle;resizable=0;points=[];" parent="QFzevljC2YXcx73YAN4w-120" vertex="1" connectable="0">
          <mxGeometry x="-0.2048" y="-6" relative="1" as="geometry">
            <mxPoint x="24" y="-30" as="offset" />
          </mxGeometry>
        </mxCell>
        <mxCell id="uQWWyqFgI2tMkjW69CQ3-30" value="&lt;b&gt;&lt;font style=&quot;font-size: 21px;&quot;&gt;5&lt;/font&gt;&lt;/b&gt;" style="ellipse;whiteSpace=wrap;html=1;aspect=fixed;fillColor=#d80073;strokeColor=#A50040;fontColor=#ffffff;" vertex="1" parent="1">
          <mxGeometry x="2390" y="720" width="50" height="50" as="geometry" />
        </mxCell>
      </root>
    </mxGraphModel>
  </diagram>
</mxfile>
